{
.appVersion = "3151";
.formatVersion = 3;
axes = (
{
name = x;
tag = XXXX;
}
);
date = "2024-05-03 04:16:17 +0000";
familyName = "New Font";
fontMaster = (
{
axesValues = (
0
);
id = m01;
metricValues = (
{
over = 16;
pos = 800;
},
{
over = 16;
pos = 700;
},
{
over = 16;
pos = 500;
},
{
over = -16;
},
{
over = -16;
pos = -200;
}
);
name = Regular;
},
{
axesValues = (
0
);
id = "39F366B4-F9D9-4E9E-8D0D-E9C65FBDF7D6";
metricValues = (
{
pos = 800;
},
{
pos = 700;
},
{
pos = 500;
},
{
},
{
pos = -200;
}
);
name = twinkle;
},
{
axesValues = (
0
);
id = "25AC2642-BCCD-43FA-98BC-574BD19E6D80";
metricValues = (
{
pos = 800;
},
{
pos = 700;
},
{
pos = 500;
},
{
},
{
pos = -200;
}
);
name = x;
}
);
glyphs = (
{
glyphname = a;
lastChange = "2024-05-10 17:22:48 +0000";
layers = (
{
layerId = m01;
shapes = (
{
closed = 1;
nodes = (
(272,0,o),
(310,3,o),
(347,13,cs),
(367,18,o),
(398,39,o),
(420,39,cs),
(433,39,o),
(441,22,o),
(455,15,cs),
(474,5,o),
(485,3,o),
(500,3,cs),
(532,3,o),
(568,26,o),
(535,58,c),
(517,79,o),
(508,96,o),
(508,121,cs),
(509,216,o),
(506,311,o),
(506,374,cs),
(506,443,o),
(569,433,o),
(577,462,c),
(577,485,o),
(518,495,o),
(479,495,cs),
(444,495,o),
(438,489,o),
(414,479,c),
(323,507,o),
(198,507,o),
(128,460,cs),
(72,423,o),
(30,371,o),
(30,244,cs),
(30,121,o),
(132,17,o),
(239,3,cs)
);
},
{
closed = 1;
nodes = (
(96,340,o),
(168,443,o),
(295,430,c),
(379,417,o),
(444,359,o),
(444,245,cs),
(444,132,o),
(346,75,o),
(285,72,cs),
(207,68,o),
(96,136,o),
(96,248,cs)
);
},
{
closed = 1;
nodes = (
(289,189,o),
(307,197,o),
(319,211,cs),
(329,223,o),
(336,238,o),
(336,255,cs),
(336,272,o),
(330,287,o),
(319,299,cs),
(307,312,o),
(289,321,o),
(270,321,cs),
(251,321,o),
(233,312,o),
(221,299,cs),
(211,287,o),
(204,272,o),
(204,255,cs),
(204,239,o),
(210,223,o),
(220,212,cs),
(233,198,o),
(250,189,o),
(270,189,cs)
);
}
);
width = 607;
},
{
layerId = "39F366B4-F9D9-4E9E-8D0D-E9C65FBDF7D6";
shapes = (
{
closed = 1;
nodes = (
(272,0,o),
(310,3,o),
(347,13,cs),
(367,18,o),
(398,39,o),
(420,39,cs),
(433,39,o),
(441,22,o),
(455,15,cs),
(474,5,o),
(485,3,o),
(500,3,cs),
(532,3,o),
(568,26,o),
(535,58,c),
(517,79,o),
(508,96,o),
(508,121,cs),
(509,216,o),
(506,311,o),
(506,374,cs),
(506,443,o),
(569,433,o),
(577,462,c),
(577,485,o),
(518,495,o),
(479,495,cs),
(444,495,o),
(438,489,o),
(414,479,c),
(323,507,o),
(198,507,o),
(128,460,cs),
(72,423,o),
(30,371,o),
(30,244,cs),
(30,121,o),
(132,17,o),
(239,3,cs)
);
},
{
closed = 1;
nodes = (
(96,340,o),
(168,443,o),
(295,430,c),
(379,417,o),
(444,359,o),
(444,245,cs),
(444,132,o),
(346,75,o),
(285,72,cs),
(207,68,o),
(96,136,o),
(96,248,cs)
);
},
{
closed = 1;
nodes = (
(289,219,o),
(327,177,o),
(339,191,cs),
(349,203,o),
(306,238,o),
(306,255,cs),
(306,272,o),
(350,307,o),
(339,319,cs),
(327,332,o),
(289,291,o),
(270,291,cs),
(251,291,o),
(213,332,o),
(201,319,cs),
(191,307,o),
(234,272,o),
(234,255,cs),
(234,239,o),
(190,203,o),
(200,192,cs),
(213,178,o),
(250,219,o),
(270,219,cs)
);
}
);
width = 607;
},
{
layerId = "25AC2642-BCCD-43FA-98BC-574BD19E6D80";
shapes = (
{
closed = 1;
nodes = (
(272,0,o),
(310,3,o),
(347,13,cs),
(367,18,o),
(398,39,o),
(420,39,cs),
(433,39,o),
(441,22,o),
(455,15,cs),
(474,5,o),
(485,3,o),
(500,3,cs),
(532,3,o),
(568,26,o),
(535,58,c),
(517,79,o),
(508,96,o),
(508,121,cs),
(509,216,o),
(506,311,o),
(506,374,cs),
(506,443,o),
(569,433,o),
(577,462,c),
(577,485,o),
(518,495,o),
(479,495,cs),
(444,495,o),
(438,489,o),
(414,479,c),
(323,507,o),
(198,507,o),
(128,460,cs),
(72,423,o),
(30,371,o),
(30,244,cs),
(30,121,o),
(132,17,o),
(239,3,cs)
);
},
{
closed = 1;
nodes = (
(96,340,o),
(168,443,o),
(295,430,c),
(379,417,o),
(444,359,o),
(444,245,cs),
(444,132,o),
(346,75,o),
(285,72,cs),
(207,68,o),
(96,136,o),
(96,248,cs)
);
},
{
closed = 1;
nodes = (
(289,169,o),
(282,216,o),
(294,230,cs),
(304,242,o),
(356,238,o),
(356,255,cs),
(356,272,o),
(305,267,o),
(294,279,cs),
(282,292,o),
(289,341,o),
(270,341,cs),
(251,341,o),
(257,292,o),
(245,279,cs),
(235,267,o),
(184,272,o),
(184,255,cs),
(184,239,o),
(235,241,o),
(245,230,cs),
(258,216,o),
(250,169,o),
(270,169,cs)
);
}
);
width = 607;
}
);
unicode = 97;
},
{
glyphname = b;
lastChange = "2024-05-10 17:12:23 +0000";
layers = (
{
layerId = m01;
shapes = (
{
closed = 1;
nodes = (
(468,17,o),
(570,123,o),
(570,249,cs),
(570,378,o),
(507,430,o),
(448,469,cs),
(379,515,o),
(259,510,o),
(181,440,c),
(170,446,o),
(171,520,o),
(171,550,cs),
(171,589,o),
(173,686,o),
(199,765,cs),
(203,778,o),
(186,776,o),
(132,750,cs),
(117,743,o),
(83,742,o),
(78,734,cs),
(72,724,o),
(90,695,o),
(95,665,cs),
(105,608,o),
(101,531,o),
(98,436,cs),
(96,372,o),
(91,220,o),
(92,123,cs),
(92,98,o),
(83,81,o),
(65,59,c),
(32,27,o),
(59,8,o),
(91,8,cs),
(115,8,o),
(135,17,o),
(151,27,cs),
(167,36,o),
(171,39,o),
(181,39,cs),
(202,39,o),
(233,18,o),
(253,13,cs),
(290,3,o),
(328,0,o),
(361,3,cs)
);
},
{
closed = 1;
nodes = (
(491,138,o),
(393,79,o),
(315,83,cs),
(254,86,o),
(167,135,o),
(167,250,cs),
(167,366,o),
(227,418,o),
(311,431,c),
(432,440,o),
(491,330,o),
(491,252,cs)
);
},
{
closed = 1;
nodes = (
(349,189,o),
(367,197,o),
(379,211,cs),
(389,223,o),
(396,238,o),
(396,255,cs),
(396,272,o),
(390,287,o),
(379,299,cs),
(367,312,o),
(349,321,o),
(330,321,cs),
(311,321,o),
(293,312,o),
(281,299,cs),
(271,287,o),
(264,272,o),
(264,255,cs),
(264,239,o),
(270,223,o),
(280,212,cs),
(293,198,o),
(310,189,o),
(330,189,cs)
);
}
);
width = 620;
},
{
attr = {
axisRules = (
{
}
);
};
layerId = "39F366B4-F9D9-4E9E-8D0D-E9C65FBDF7D6";
shapes = (
{
closed = 1;
nodes = (
(468,17,o),
(570,123,o),
(570,249,cs),
(570,378,o),
(507,430,o),
(448,469,cs),
(379,515,o),
(259,510,o),
(181,440,c),
(170,446,o),
(171,520,o),
(171,550,cs),
(171,589,o),
(173,686,o),
(199,765,cs),
(203,778,o),
(186,776,o),
(132,750,cs),
(117,743,o),
(83,742,o),
(78,734,cs),
(72,724,o),
(90,695,o),
(95,665,cs),
(105,608,o),
(101,531,o),
(98,436,cs),
(96,372,o),
(91,220,o),
(92,123,cs),
(92,98,o),
(83,81,o),
(65,59,c),
(32,27,o),
(59,8,o),
(91,8,cs),
(115,8,o),
(135,17,o),
(151,27,cs),
(167,36,o),
(171,39,o),
(181,39,cs),
(202,39,o),
(233,18,o),
(253,13,cs),
(290,3,o),
(328,0,o),
(361,3,cs)
);
},
{
closed = 1;
nodes = (
(491,138,o),
(393,79,o),
(315,83,cs),
(254,86,o),
(167,135,o),
(167,250,cs),
(167,366,o),
(227,418,o),
(311,431,c),
(432,440,o),
(491,330,o),
(491,252,cs)
);
},
{
closed = 1;
nodes = (
(349,169,o),
(342,216,o),
(354,230,cs),
(364,242,o),
(416,238,o),
(416,255,cs),
(416,272,o),
(365,267,o),
(354,279,cs),
(342,292,o),
(349,341,o),
(330,341,cs),
(311,341,o),
(317,292,o),
(305,279,cs),
(295,267,o),
(244,272,o),
(244,255,cs),
(244,239,o),
(295,241,o),
(305,230,cs),
(318,216,o),
(310,169,o),
(330,169,cs)
);
}
);
width = 620;
},
{
layerId = "25AC2642-BCCD-43FA-98BC-574BD19E6D80";
shapes = (
{
closed = 1;
nodes = (
(468,17,o),
(570,123,o),
(570,249,cs),
(570,378,o),
(507,430,o),
(448,469,cs),
(379,515,o),
(259,510,o),
(181,440,c),
(170,446,o),
(171,520,o),
(171,550,cs),
(171,589,o),
(173,686,o),
(199,765,cs),
(203,778,o),
(186,776,o),
(132,750,cs),
(117,743,o),
(83,742,o),
(78,734,cs),
(72,724,o),
(90,695,o),
(95,665,cs),
(105,608,o),
(101,531,o),
(98,436,cs),
(96,372,o),
(91,220,o),
(92,123,cs),
(92,98,o),
(83,81,o),
(65,59,c),
(32,27,o),
(59,8,o),
(91,8,cs),
(115,8,o),
(135,17,o),
(151,27,cs),
(167,36,o),
(171,39,o),
(181,39,cs),
(202,39,o),
(233,18,o),
(253,13,cs),
(290,3,o),
(328,0,o),
(361,3,cs)
);
},
{
closed = 1;
nodes = (
(491,138,o),
(393,79,o),
(315,83,cs),
(254,86,o),
(167,135,o),
(167,250,cs),
(167,366,o),
(227,418,o),
(311,431,c),
(432,440,o),
(491,330,o),
(491,252,cs)
);
},
{
closed = 1;
nodes = (
(349,219,o),
(387,177,o),
(399,191,cs),
(409,203,o),
(366,238,o),
(366,255,cs),
(366,272,o),
(410,307,o),
(399,319,cs),
(387,332,o),
(349,291,o),
(330,291,cs),
(311,291,o),
(273,332,o),
(261,319,cs),
(251,307,o),
(294,272,o),
(294,255,cs),
(294,239,o),
(250,203,o),
(260,192,cs),
(273,178,o),
(310,219,o),
(330,219,cs)
);
}
);
width = 620;
}
);
unicode = 98;
},
{
glyphname = c;
lastChange = "2024-05-10 17:15:00 +0000";
layers = (
{
layerId = m01;
shapes = (
{
closed = 1;
nodes = (
(444,139,o),
(396,73,o),
(305,73,cs),
(220,73,o),
(129,131,o),
(129,252,cs),
(129,330,o),
(188,440,o),
(309,431,cs),
(364,426,o),
(420,378,o),
(428,340,cs),
(432,323,o),
(423,282,o),
(408,252,cs),
(383,201,o),
(292,178,o),
(285,220,cs),
(283,233,o),
(323,210,o),
(336,258,cs),
(344,289,o),
(315,308,o),
(296,308,cs),
(284,308,o),
(273,303,o),
(266,295,c),
(238,269,o),
(254,178,o),
(296,169,cs),
(324,163,o),
(375,162,o),
(423,224,cs),
(453,263,o),
(458,325,o),
(460,326,c),
(473,339,o),
(486,351,o),
(499,365,c),
(490,389,o),
(474,413,o),
(462,427,cs),
(335,575,o),
(50,485,o),
(50,249,cs),
(50,93,o),
(152,19,o),
(259,4,cs),
(292,1,o),
(344,0,o),
(389,18,cs),
(435,39,o),
(490,73,o),
(519,151,c),
(506,167,o),
(489,188,o),
(473,201,c)
);
}
);
width = 569;
},
{
layerId = "39F366B4-F9D9-4E9E-8D0D-E9C65FBDF7D6";
shapes = (
{
closed = 1;
nodes = (
(444,139,o),
(396,73,o),
(305,73,cs),
(220,73,o),
(129,131,o),
(129,252,cs),
(129,330,o),
(188,440,o),
(309,431,cs),
(364,426,o),
(420,378,o),
(428,340,cs),
(432,323,o),
(423,282,o),
(408,252,cs),
(383,201,o),
(292,178,o),
(285,220,cs),
(283,233,o),
(323,210,o),
(336,258,cs),
(344,289,o),
(315,308,o),
(296,308,cs),
(284,308,o),
(273,303,o),
(266,295,c),
(238,269,o),
(254,178,o),
(296,169,cs),
(324,163,o),
(375,162,o),
(423,224,cs),
(453,263,o),
(458,325,o),
(460,326,c),
(473,339,o),
(486,351,o),
(499,365,c),
(490,389,o),
(474,413,o),
(462,427,cs),
(335,575,o),
(50,485,o),
(50,249,cs),
(50,93,o),
(152,19,o),
(259,4,cs),
(292,1,o),
(344,0,o),
(389,18,cs),
(435,39,o),
(490,73,o),
(519,151,c),
(506,167,o),
(489,188,o),
(473,201,c)
);
}
);
width = 569;
},
{
layerId = "25AC2642-BCCD-43FA-98BC-574BD19E6D80";
shapes = (
{
closed = 1;
nodes = (
(444,139,o),
(396,73,o),
(305,73,cs),
(220,73,o),
(129,131,o),
(129,252,cs),
(129,330,o),
(188,440,o),
(309,431,cs),
(364,426,o),
(420,378,o),
(428,340,cs),
(432,323,o),
(423,282,o),
(408,252,cs),
(383,201,o),
(292,178,o),
(285,220,cs),
(283,233,o),
(323,210,o),
(336,258,cs),
(344,289,o),
(315,308,o),
(296,308,cs),
(284,308,o),
(273,303,o),
(266,295,c),
(238,269,o),
(254,178,o),
(296,169,cs),
(324,163,o),
(375,162,o),
(423,224,cs),
(453,263,o),
(458,325,o),
(460,326,c),
(473,339,o),
(486,351,o),
(499,365,c),
(490,389,o),
(474,413,o),
(462,427,cs),
(335,575,o),
(50,485,o),
(50,249,cs),
(50,93,o),
(152,19,o),
(259,4,cs),
(292,1,o),
(344,0,o),
(389,18,cs),
(435,39,o),
(490,73,o),
(519,151,c),
(506,167,o),
(489,188,o),
(473,201,c)
);
}
);
width = 569;
}
);
unicode = 99;
},
{
glyphname = d;
lastChange = "2024-05-10 17:31:38 +0000";
layers = (
{
layerId = m01;
shapes = (
{
closed = 1;
nodes = (
(292,0,o),
(330,3,o),
(367,13,cs),
(387,18,o),
(418,39,o),
(439,39,cs),
(449,39,o),
(453,36,o),
(469,27,cs),
(485,17,o),
(505,8,o),
(529,8,cs),
(561,8,o),
(588,27,o),
(555,59,c),
(537,81,o),
(528,98,o),
(528,123,cs),
(529,208,o),
(525,706,o),
(533,718,cs),
(535,722,o),
(537,744,o),
(544,752,cs),
(552,762,o),
(549,761,o),
(548,761,cs),
(490,755,o),
(426,730,o),
(426,714,cs),
(426,696,o),
(454,678,o),
(458,656,cs),
(464,626,o),
(465,443,o),
(454,437,c),
(376,507,o),
(241,515,o),
(172,469,cs),
(113,430,o),
(50,378,o),
(50,249,cs),
(50,123,o),
(152,17,o),
(259,3,cs)
);
},
{
closed = 1;
nodes = (
(227,79,o),
(129,138,o),
(129,252,cs),
(129,330,o),
(188,431,o),
(309,422,c),
(393,409,o),
(453,349,o),
(453,250,cs),
(453,135,o),
(366,86,o),
(305,83,cs)
);
},
{
closed = 1;
nodes = (
(309,189,o),
(327,197,o),
(339,211,cs),
(349,223,o),
(356,238,o),
(356,255,cs),
(356,272,o),
(350,287,o),
(339,299,cs),
(327,312,o),
(309,321,o),
(290,321,cs),
(271,321,o),
(253,312,o),
(241,299,cs),
(231,287,o),
(224,272,o),
(224,255,cs),
(224,239,o),
(230,223,o),
(240,212,cs),
(253,198,o),
(270,189,o),
(290,189,cs)
);
}
);
width = 620;
},
{
layerId = "39F366B4-F9D9-4E9E-8D0D-E9C65FBDF7D6";
shapes = (
{
closed = 1;
nodes = (
(292,0,o),
(330,3,o),
(367,13,cs),
(387,18,o),
(418,39,o),
(439,39,cs),
(449,39,o),
(453,36,o),
(469,27,cs),
(485,17,o),
(505,8,o),
(529,8,cs),
(561,8,o),
(588,27,o),
(555,59,c),
(537,81,o),
(528,98,o),
(528,123,cs),
(529,208,o),
(525,706,o),
(533,718,cs),
(535,722,o),
(537,744,o),
(544,752,cs),
(552,762,o),
(549,761,o),
(548,761,cs),
(490,755,o),
(426,730,o),
(426,714,cs),
(426,696,o),
(454,678,o),
(458,656,cs),
(464,626,o),
(465,443,o),
(454,437,c),
(376,507,o),
(241,515,o),
(172,469,cs),
(113,430,o),
(50,378,o),
(50,249,cs),
(50,123,o),
(152,17,o),
(259,3,cs)
);
},
{
closed = 1;
nodes = (
(227,79,o),
(129,138,o),
(129,252,cs),
(129,330,o),
(188,431,o),
(309,422,c),
(393,409,o),
(453,349,o),
(453,250,cs),
(453,135,o),
(366,86,o),
(305,83,cs)
);
},
{
closed = 1;
nodes = (
(309,219,o),
(347,177,o),
(359,191,cs),
(369,203,o),
(326,238,o),
(326,255,cs),
(326,272,o),
(370,307,o),
(359,319,cs),
(347,332,o),
(309,291,o),
(290,291,cs),
(271,291,o),
(233,332,o),
(221,319,cs),
(211,307,o),
(254,272,o),
(254,255,cs),
(254,239,o),
(210,203,o),
(220,192,cs),
(233,178,o),
(270,219,o),
(290,219,cs)
);
}
);
width = 620;
},
{
layerId = "25AC2642-BCCD-43FA-98BC-574BD19E6D80";
shapes = (
{
closed = 1;
nodes = (
(292,0,o),
(330,3,o),
(367,13,cs),
(387,18,o),
(418,39,o),
(439,39,cs),
(449,39,o),
(453,36,o),
(469,27,cs),
(485,17,o),
(505,8,o),
(529,8,cs),
(561,8,o),
(588,27,o),
(555,59,c),
(537,81,o),
(528,98,o),
(528,123,cs),
(529,208,o),
(525,706,o),
(533,718,cs),
(535,722,o),
(537,744,o),
(544,752,cs),
(552,762,o),
(549,761,o),
(548,761,cs),
(490,755,o),
(426,730,o),
(426,714,cs),
(426,696,o),
(454,678,o),
(458,656,cs),
(464,626,o),
(465,443,o),
(454,437,c),
(376,507,o),
(241,515,o),
(172,469,cs),
(113,430,o),
(50,378,o),
(50,249,cs),
(50,123,o),
(152,17,o),
(259,3,cs)
);
},
{
closed = 1;
nodes = (
(227,79,o),
(129,138,o),
(129,252,cs),
(129,330,o),
(188,431,o),
(309,422,c),
(393,409,o),
(453,349,o),
(453,250,cs),
(453,135,o),
(366,86,o),
(305,83,cs)
);
},
{
closed = 1;
nodes = (
(309,169,o),
(302,216,o),
(314,230,cs),
(324,242,o),
(376,238,o),
(376,255,cs),
(376,272,o),
(325,267,o),
(314,279,cs),
(302,292,o),
(309,341,o),
(290,341,cs),
(271,341,o),
(277,292,o),
(265,279,cs),
(255,267,o),
(204,272,o),
(204,255,cs),
(204,239,o),
(255,241,o),
(265,230,cs),
(278,216,o),
(270,169,o),
(290,169,cs)
);
}
);
width = 620;
}
);
unicode = 100;
},
{
glyphname = e;
lastChange = "2024-05-10 17:15:30 +0000";
layers = (
{
layerId = m01;
shapes = (
{
closed = 1;
nodes = (
(421,147,o),
(361,79,o),
(285,73,cs),
(209,67,o),
(160,95,o),
(133,138,c),
(137,139,o),
(480,318,o),
(484,322,c),
(469,369,o),
(443,402,o),
(428,420,cs),
(310,559,o),
(30,485,o),
(30,249,cs),
(30,93,o),
(132,19,o),
(239,4,cs),
(272,1,o),
(324,0,o),
(369,18,cs),
(415,39,o),
(470,73,o),
(499,151,c),
(486,167,o),
(466,196,o),
(450,209,c)
);
},
{
closed = 1;
nodes = (
(109,330,o),
(168,431,o),
(289,422,cs),
(312,420,o),
(368,399,o),
(388,348,c),
(112,211,l),
(111,224,o),
(109,238,o),
(109,252,cs)
);
}
);
width = 529;
},
{
layerId = "39F366B4-F9D9-4E9E-8D0D-E9C65FBDF7D6";
shapes = (
{
closed = 1;
nodes = (
(421,147,o),
(361,79,o),
(285,73,cs),
(209,67,o),
(160,95,o),
(133,138,c),
(137,139,o),
(480,318,o),
(484,322,c),
(469,369,o),
(443,402,o),
(428,420,cs),
(310,559,o),
(30,485,o),
(30,249,cs),
(30,93,o),
(132,19,o),
(239,4,cs),
(272,1,o),
(324,0,o),
(369,18,cs),
(415,39,o),
(470,73,o),
(499,151,c),
(486,167,o),
(466,196,o),
(450,209,c)
);
},
{
closed = 1;
nodes = (
(109,330,o),
(168,431,o),
(289,422,cs),
(312,420,o),
(368,399,o),
(388,348,c),
(112,211,l),
(111,224,o),
(109,238,o),
(109,252,cs)
);
}
);
width = 529;
},
{
layerId = "25AC2642-BCCD-43FA-98BC-574BD19E6D80";
shapes = (
{
closed = 1;
nodes = (
(421,147,o),
(361,79,o),
(285,73,cs),
(209,67,o),
(160,95,o),
(133,138,c),
(137,139,o),
(480,318,o),
(484,322,c),
(469,369,o),
(443,402,o),
(428,420,cs),
(310,559,o),
(30,485,o),
(30,249,cs),
(30,93,o),
(132,19,o),
(239,4,cs),
(272,1,o),
(324,0,o),
(369,18,cs),
(415,39,o),
(470,73,o),
(499,151,c),
(486,167,o),
(466,196,o),
(450,209,c)
);
},
{
closed = 1;
nodes = (
(109,330,o),
(168,431,o),
(289,422,cs),
(312,420,o),
(368,399,o),
(388,348,c),
(112,211,l),
(111,224,o),
(109,238,o),
(109,252,cs)
);
}
);
width = 529;
}
);
unicode = 101;
},
{
glyphname = f;
lastChange = "2024-05-10 17:16:07 +0000";
layers = (
{
layerId = m01;
shapes = (
{
closed = 1;
nodes = (
(222,643,o),
(241,643,cs),
(255,643,o),
(269,652,o),
(269,672,cs),
(269,692,o),
(244,711,o),
(212,713,cs),
(211,713,o),
(209,713,o),
(209,713,cs),
(113,713,o),
(79,652,o),
(79,584,cs),
(79,524,o),
(135,471,o),
(183,479,c),
(233,485,o),
(259,490,o),
(265,490,cs),
(281,490,o),
(305,485,o),
(290,460,cs),
(281,445,o),
(188,450,o),
(160,418,cs),
(155,412,o),
(150,412,o),
(160,313,cs),
(179,134,o),
(174,-124,o),
(129,-181,c),
(115,-196,o),
(106,-197,o),
(101,-197,cs),
(94,-197,o),
(96,-165,o),
(96,-153,cs),
(96,-116,o),
(93,-72,o),
(93,-45,c),
(91,-16,o),
(30,-28,o),
(30,-1,cs),
(30,24,o),
(91,19,o),
(103,80,c),
(108,139,o),
(102,182,o),
(94,222,cs),
(87,268,o),
(38,513,o),
(38,560,cs),
(38,665,o),
(91,739,o),
(206,742,c),
(242,742,o),
(275,727,o),
(288,709,cs),
(307,682,o),
(307,648,o),
(305,620,cs),
(303,571,o),
(275,533,o),
(225,533,cs),
(188,533,o),
(156,543,o),
(135,576,cs),
(122,595,o),
(117,618,o),
(117,629,cs),
(117,676,o),
(158,702,o),
(187,702,cs),
(201,702,o),
(206,695,o),
(206,676,cs),
(206,657,o)
);
}
);
width = 336;
},
{
layerId = "39F366B4-F9D9-4E9E-8D0D-E9C65FBDF7D6";
shapes = (
{
closed = 1;
nodes = (
(222,643,o),
(241,643,cs),
(255,643,o),
(269,652,o),
(269,672,cs),
(269,692,o),
(244,711,o),
(212,713,cs),
(211,713,o),
(209,713,o),
(209,713,cs),
(113,713,o),
(79,652,o),
(79,584,cs),
(79,524,o),
(135,471,o),
(183,479,c),
(233,485,o),
(259,490,o),
(265,490,cs),
(281,490,o),
(305,485,o),
(290,460,cs),
(281,445,o),
(188,450,o),
(160,418,cs),
(155,412,o),
(150,412,o),
(160,313,cs),
(179,134,o),
(174,-124,o),
(129,-181,c),
(115,-196,o),
(106,-197,o),
(101,-197,cs),
(94,-197,o),
(96,-165,o),
(96,-153,cs),
(96,-116,o),
(93,-72,o),
(93,-45,c),
(91,-16,o),
(30,-28,o),
(30,-1,cs),
(30,24,o),
(91,19,o),
(103,80,c),
(108,139,o),
(102,182,o),
(94,222,cs),
(87,268,o),
(38,513,o),
(38,560,cs),
(38,665,o),
(91,739,o),
(206,742,c),
(242,742,o),
(275,727,o),
(288,709,cs),
(307,682,o),
(307,648,o),
(305,620,cs),
(303,571,o),
(275,533,o),
(225,533,cs),
(188,533,o),
(156,543,o),
(135,576,cs),
(122,595,o),
(117,618,o),
(117,629,cs),
(117,676,o),
(158,702,o),
(187,702,cs),
(201,702,o),
(206,695,o),
(206,676,cs),
(206,657,o)
);
}
);
width = 336;
},
{
layerId = "25AC2642-BCCD-43FA-98BC-574BD19E6D80";
shapes = (
{
closed = 1;
nodes = (
(222,643,o),
(241,643,cs),
(255,643,o),
(269,652,o),
(269,672,cs),
(269,692,o),
(244,711,o),
(212,713,cs),
(211,713,o),
(209,713,o),
(209,713,cs),
(113,713,o),
(79,652,o),
(79,584,cs),
(79,524,o),
(135,471,o),
(183,479,c),
(233,485,o),
(259,490,o),
(265,490,cs),
(281,490,o),
(305,485,o),
(290,460,cs),
(281,445,o),
(188,450,o),
(160,418,cs),
(155,412,o),
(150,412,o),
(160,313,cs),
(179,134,o),
(174,-124,o),
(129,-181,c),
(115,-196,o),
(106,-197,o),
(101,-197,cs),
(94,-197,o),
(96,-165,o),
(96,-153,cs),
(96,-116,o),
(93,-72,o),
(93,-45,c),
(91,-16,o),
(30,-28,o),
(30,-1,cs),
(30,24,o),
(91,19,o),
(103,80,c),
(108,139,o),
(102,182,o),
(94,222,cs),
(87,268,o),
(38,513,o),
(38,560,cs),
(38,665,o),
(91,739,o),
(206,742,c),
(242,742,o),
(275,727,o),
(288,709,cs),
(307,682,o),
(307,648,o),
(305,620,cs),
(303,571,o),
(275,533,o),
(225,533,cs),
(188,533,o),
(156,543,o),
(135,576,cs),
(122,595,o),
(117,618,o),
(117,629,cs),
(117,676,o),
(158,702,o),
(187,702,cs),
(201,702,o),
(206,695,o),
(206,676,cs),
(206,657,o)
);
}
);
width = 336;
}
);
unicode = 102;
},
{
glyphname = g;
lastChange = "2024-05-10 17:34:45 +0000";
layers = (
{
layerId = m01;
shapes = (
{
closed = 1;
nodes = (
(320,-238,o),
(383,-217,o),
(423,-185,c),
(539,-102,o),
(509,115,o),
(509,139,cs),
(509,230,o),
(502,320,o),
(502,380,cs),
(502,446,o),
(569,436,o),
(569,465,cs),
(569,486,o),
(513,496,o),
(476,496,cs),
(443,496,o),
(430,481,o),
(405,481,c),
(318,500,o),
(208,514,o),
(143,463,cs),
(93,424,o),
(50,378,o),
(50,256,cs),
(50,139,o),
(147,38,o),
(248,26,cs),
(280,22,o),
(316,20,o),
(351,29,cs),
(370,34,o),
(428,64,o),
(446,80,cs),
(452,86,o),
(449,-41,o),
(423,-89,cs),
(373,-181,o),
(295,-187,o),
(261,-184,cs),
(199,-179,o),
(171,-151,o),
(154,-71,cs),
(152,-61,o),
(142,-35,o),
(129,-36,c),
(114,-39,o),
(105,-64,o),
(105,-91,cs),
(105,-129,o),
(119,-178,o),
(143,-199,cs),
(188,-238,o),
(232,-238,o),
(273,-238,c)
);
},
{
closed = 1;
nodes = (
(113,348,o),
(181,448,o),
(301,434,cs),
(381,424,o),
(443,366,o),
(443,257,cs),
(443,149,o),
(350,95,o),
(292,92,cs),
(218,88,o),
(113,153,o),
(113,260,cs)
);
},
{
closed = 1;
nodes = (
(299,199,o),
(317,207,o),
(329,221,cs),
(339,233,o),
(346,248,o),
(346,265,cs),
(346,282,o),
(340,297,o),
(329,309,cs),
(317,322,o),
(299,331,o),
(280,331,cs),
(261,331,o),
(243,322,o),
(231,309,cs),
(221,297,o),
(214,282,o),
(214,265,cs),
(214,249,o),
(220,233,o),
(230,222,cs),
(243,208,o),
(260,199,o),
(280,199,cs)
);
}
);
width = 619;
},
{
layerId = "39F366B4-F9D9-4E9E-8D0D-E9C65FBDF7D6";
shapes = (
{
closed = 1;
nodes = (
(320,-238,o),
(383,-217,o),
(423,-185,c),
(539,-102,o),
(509,115,o),
(509,139,cs),
(509,230,o),
(502,320,o),
(502,380,cs),
(502,446,o),
(569,436,o),
(569,465,cs),
(569,486,o),
(513,496,o),
(476,496,cs),
(443,496,o),
(430,481,o),
(405,481,c),
(318,500,o),
(208,514,o),
(143,463,cs),
(93,424,o),
(50,378,o),
(50,256,cs),
(50,139,o),
(147,38,o),
(248,26,cs),
(280,22,o),
(316,20,o),
(351,29,cs),
(370,34,o),
(428,64,o),
(446,80,cs),
(452,86,o),
(449,-41,o),
(423,-89,cs),
(373,-181,o),
(295,-187,o),
(261,-184,cs),
(199,-179,o),
(171,-151,o),
(154,-71,cs),
(152,-61,o),
(142,-35,o),
(129,-36,c),
(114,-39,o),
(105,-64,o),
(105,-91,cs),
(105,-129,o),
(119,-178,o),
(143,-199,cs),
(188,-238,o),
(232,-238,o),
(273,-238,c)
);
},
{
closed = 1;
nodes = (
(113,348,o),
(181,448,o),
(301,434,cs),
(381,424,o),
(443,366,o),
(443,257,cs),
(443,149,o),
(350,95,o),
(292,92,cs),
(218,88,o),
(113,153,o),
(113,260,cs)
);
},
{
closed = 1;
nodes = (
(299,179,o),
(292,226,o),
(304,240,cs),
(314,252,o),
(366,248,o),
(366,265,cs),
(366,282,o),
(315,277,o),
(304,289,cs),
(292,302,o),
(299,351,o),
(280,351,cs),
(261,351,o),
(267,302,o),
(255,289,cs),
(245,277,o),
(194,282,o),
(194,265,cs),
(194,249,o),
(245,251,o),
(255,240,cs),
(268,226,o),
(260,179,o),
(280,179,cs)
);
}
);
width = 619;
},
{
layerId = "25AC2642-BCCD-43FA-98BC-574BD19E6D80";
shapes = (
{
closed = 1;
nodes = (
(320,-238,o),
(383,-217,o),
(423,-185,c),
(539,-102,o),
(509,115,o),
(509,139,cs),
(509,230,o),
(502,320,o),
(502,380,cs),
(502,446,o),
(569,436,o),
(569,465,cs),
(569,486,o),
(513,496,o),
(476,496,cs),
(443,496,o),
(430,481,o),
(405,481,c),
(318,500,o),
(208,514,o),
(143,463,cs),
(93,424,o),
(50,378,o),
(50,256,cs),
(50,139,o),
(147,38,o),
(248,26,cs),
(280,22,o),
(316,20,o),
(351,29,cs),
(370,34,o),
(428,64,o),
(446,80,cs),
(452,86,o),
(449,-41,o),
(423,-89,cs),
(373,-181,o),
(295,-187,o),
(261,-184,cs),
(199,-179,o),
(171,-151,o),
(154,-71,cs),
(152,-61,o),
(142,-35,o),
(129,-36,c),
(114,-39,o),
(105,-64,o),
(105,-91,cs),
(105,-129,o),
(119,-178,o),
(143,-199,cs),
(188,-238,o),
(232,-238,o),
(273,-238,c)
);
},
{
closed = 1;
nodes = (
(113,348,o),
(181,448,o),
(301,434,cs),
(381,424,o),
(443,366,o),
(443,257,cs),
(443,149,o),
(350,95,o),
(292,92,cs),
(218,88,o),
(113,153,o),
(113,260,cs)
);
},
{
closed = 1;
nodes = (
(299,229,o),
(337,187,o),
(349,201,cs),
(359,213,o),
(316,248,o),
(316,265,cs),
(316,282,o),
(360,317,o),
(349,329,cs),
(337,342,o),
(299,301,o),
(280,301,cs),
(261,301,o),
(223,342,o),
(211,329,cs),
(201,317,o),
(244,282,o),
(244,265,cs),
(244,249,o),
(200,213,o),
(210,202,cs),
(223,188,o),
(260,229,o),
(280,229,cs)
);
}
);
width = 619;
}
);
unicode = 103;
},
{
glyphname = h;
lastChange = "2024-05-10 17:35:31 +0000";
layers = (
{
layerId = m01;
shapes = (
{
closed = 1;
nodes = (
(499,94,o),
(549,131,o),
(549,245,cs),
(549,382,o),
(492,431,o),
(440,467,cs),
(373,514,o),
(234,524,o),
(151,401,c),
(140,407,o),
(144,500,o),
(144,530,cs),
(144,569,o),
(156,696,o),
(157,705,cs),
(159,720,o),
(156,742,o),
(103,720,cs),
(84,712,o),
(56,708,o),
(51,700,cs),
(46,690,o),
(61,663,o),
(66,633,cs),
(75,576,o),
(74,506,o),
(77,413,cs),
(79,346,o),
(81,201,o),
(83,104,cs),
(84,41,o),
(56,48,o),
(55,15,c),
(56,0,o),
(85,0,o),
(136,0,cs),
(154,0,o),
(204,-1,o),
(205,11,cs),
(206,24,o),
(165,56,o),
(158,75,cs),
(140,124,o),
(148,182,o),
(148,230,cs),
(148,346,o),
(222,417,o),
(308,431,c),
(414,436,o),
(476,349,o),
(476,266,cs),
(476,219,o),
(468,164,o),
(442,122,cs),
(415,77,o),
(373,59,o),
(372,35,cs),
(371,1,o),
(391,1,o),
(451,1,cs),
(472,1,o),
(534,-3,o),
(534,15,cs),
(534,30,o),
(463,50,o),
(468,60,c)
);
},
{
closed = 1;
nodes = (
(329,169,o),
(347,177,o),
(359,191,cs),
(369,203,o),
(376,218,o),
(376,235,cs),
(376,252,o),
(370,267,o),
(359,279,cs),
(347,292,o),
(329,301,o),
(310,301,cs),
(291,301,o),
(273,292,o),
(261,279,cs),
(251,267,o),
(244,252,o),
(244,235,cs),
(244,219,o),
(250,203,o),
(260,192,cs),
(273,178,o),
(290,169,o),
(310,169,cs)
);
}
);
width = 599;
},
{
layerId = "39F366B4-F9D9-4E9E-8D0D-E9C65FBDF7D6";
shapes = (
{
closed = 1;
nodes = (
(499,94,o),
(549,131,o),
(549,245,cs),
(549,382,o),
(492,431,o),
(440,467,cs),
(373,514,o),
(234,524,o),
(151,401,c),
(140,407,o),
(144,500,o),
(144,530,cs),
(144,569,o),
(156,696,o),
(157,705,cs),
(159,720,o),
(156,742,o),
(103,720,cs),
(84,712,o),
(56,708,o),
(51,700,cs),
(46,690,o),
(61,663,o),
(66,633,cs),
(75,576,o),
(74,506,o),
(77,413,cs),
(79,346,o),
(81,201,o),
(83,104,cs),
(84,41,o),
(56,48,o),
(55,15,c),
(56,0,o),
(85,0,o),
(136,0,cs),
(154,0,o),
(204,-1,o),
(205,11,cs),
(206,24,o),
(165,56,o),
(158,75,cs),
(140,124,o),
(148,182,o),
(148,230,cs),
(148,346,o),
(222,417,o),
(308,431,c),
(414,436,o),
(476,349,o),
(476,266,cs),
(476,219,o),
(468,164,o),
(442,122,cs),
(415,77,o),
(373,59,o),
(372,35,cs),
(371,1,o),
(391,1,o),
(451,1,cs),
(472,1,o),
(534,-3,o),
(534,15,cs),
(534,30,o),
(463,50,o),
(468,60,c)
);
},
{
closed = 1;
nodes = (
(329,199,o),
(367,157,o),
(379,171,cs),
(389,183,o),
(346,218,o),
(346,235,cs),
(346,252,o),
(390,287,o),
(379,299,cs),
(367,312,o),
(329,271,o),
(310,271,cs),
(291,271,o),
(253,312,o),
(241,299,cs),
(231,287,o),
(274,252,o),
(274,235,cs),
(274,219,o),
(230,183,o),
(240,172,cs),
(253,158,o),
(290,199,o),
(310,199,cs)
);
}
);
width = 599;
},
{
layerId = "25AC2642-BCCD-43FA-98BC-574BD19E6D80";
shapes = (
{
closed = 1;
nodes = (
(499,94,o),
(549,131,o),
(549,245,cs),
(549,382,o),
(492,431,o),
(440,467,cs),
(373,514,o),
(234,524,o),
(151,401,c),
(140,407,o),
(144,500,o),
(144,530,cs),
(144,569,o),
(156,696,o),
(157,705,cs),
(159,720,o),
(156,742,o),
(103,720,cs),
(84,712,o),
(56,708,o),
(51,700,cs),
(46,690,o),
(61,663,o),
(66,633,cs),
(75,576,o),
(74,506,o),
(77,413,cs),
(79,346,o),
(81,201,o),
(83,104,cs),
(84,41,o),
(56,48,o),
(55,15,c),
(56,0,o),
(85,0,o),
(136,0,cs),
(154,0,o),
(204,-1,o),
(205,11,cs),
(206,24,o),
(165,56,o),
(158,75,cs),
(140,124,o),
(148,182,o),
(148,230,cs),
(148,346,o),
(222,417,o),
(308,431,c),
(414,436,o),
(476,349,o),
(476,266,cs),
(476,219,o),
(468,164,o),
(442,122,cs),
(415,77,o),
(373,59,o),
(372,35,cs),
(371,1,o),
(391,1,o),
(451,1,cs),
(472,1,o),
(534,-3,o),
(534,15,cs),
(534,30,o),
(463,50,o),
(468,60,c)
);
},
{
closed = 1;
nodes = (
(329,149,o),
(322,196,o),
(334,210,cs),
(344,222,o),
(396,218,o),
(396,235,cs),
(396,252,o),
(345,247,o),
(334,259,cs),
(322,272,o),
(329,321,o),
(310,321,cs),
(291,321,o),
(297,272,o),
(285,259,cs),
(275,247,o),
(224,252,o),
(224,235,cs),
(224,219,o),
(275,221,o),
(285,210,cs),
(298,196,o),
(290,149,o),
(310,149,cs)
);
}
);
width = 599;
}
);
unicode = 104;
},
{
glyphname = i;
lastChange = "2024-05-10 17:17:19 +0000";
layers = (
{
layerId = m01;
shapes = (
{
closed = 1;
nodes = (
(31,451,o),
(53,425,o),
(60,380,cs),
(69,325,o),
(67,154,o),
(64,121,cs),
(59,57,o),
(24,4,o),
(42,4,cs),
(75,4,o),
(178,0,o),
(182,7,cs),
(193,26,o),
(160,34,o),
(151,84,cs),
(134,183,o),
(138,382,o),
(136,484,cs),
(136,499,o),
(126,500,o),
(114,500,cs),
(87,500,o),
(30,481,o),
(30,463,c)
);
},
{
closed = 1;
nodes = (
(147,676,o),
(127,700,o),
(92,700,cs),
(65,700,o),
(46,675,o),
(46,646,cs),
(46,575,o),
(144,581,o),
(146,637,cs)
);
}
);
width = 214;
},
{
layerId = "39F366B4-F9D9-4E9E-8D0D-E9C65FBDF7D6";
shapes = (
{
closed = 1;
nodes = (
(31,451,o),
(53,425,o),
(60,380,cs),
(69,325,o),
(67,154,o),
(64,121,cs),
(59,57,o),
(24,4,o),
(42,4,cs),
(75,4,o),
(178,0,o),
(182,7,cs),
(193,26,o),
(160,34,o),
(151,84,cs),
(134,183,o),
(138,382,o),
(136,484,cs),
(136,499,o),
(126,500,o),
(114,500,cs),
(87,500,o),
(30,481,o),
(30,463,c)
);
},
{
closed = 1;
nodes = (
(147,676,o),
(127,700,o),
(92,700,cs),
(65,700,o),
(46,675,o),
(46,646,cs),
(46,575,o),
(144,581,o),
(146,637,cs)
);
}
);
width = 214;
},
{
layerId = "25AC2642-BCCD-43FA-98BC-574BD19E6D80";
shapes = (
{
closed = 1;
nodes = (
(31,451,o),
(53,425,o),
(60,380,cs),
(69,325,o),
(67,154,o),
(64,121,cs),
(59,57,o),
(24,4,o),
(42,4,cs),
(75,4,o),
(178,0,o),
(182,7,cs),
(193,26,o),
(160,34,o),
(151,84,cs),
(134,183,o),
(138,382,o),
(136,484,cs),
(136,499,o),
(126,500,o),
(114,500,cs),
(87,500,o),
(30,481,o),
(30,463,c)
);
},
{
closed = 1;
nodes = (
(147,676,o),
(127,700,o),
(92,700,cs),
(65,700,o),
(46,675,o),
(46,646,cs),
(46,575,o),
(144,581,o),
(146,637,cs)
);
}
);
width = 214;
}
);
unicode = 105;
},
{
glyphname = j;
lastChange = "2024-05-10 17:14:20 +0000";
layers = (
{
layerId = m01;
shapes = (
{
closed = 1;
nodes = (
(158,676,o),
(138,700,o),
(103,700,cs),
(76,700,o),
(57,675,o),
(57,646,cs),
(57,575,o),
(155,581,o),
(157,637,cs)
);
},
{
closed = 1;
nodes = (
(90,31,o),
(46,-52,cs),
(-3,-145,o),
(-69,-162,o),
(-113,-154,cs),
(-174,-143,o),
(-192,-104,o),
(-201,-52,cs),
(-203,-42,o),
(-213,-16,o),
(-226,-17,c),
(-241,-20,o),
(-250,-45,o),
(-250,-72,cs),
(-250,-110,o),
(-236,-159,o),
(-212,-180,cs),
(-167,-219,o),
(-123,-219,o),
(-82,-219,c),
(-35,-219,o),
(12,-200,o),
(52,-168,c),
(168,-85,o),
(154,134,o),
(154,158,c),
(150,260,o),
(149,382,o),
(147,484,cs),
(147,499,o),
(137,500,o),
(125,500,cs),
(98,500,o),
(41,481,o),
(41,463,c),
(42,451,o),
(67,425,o),
(71,380,cs),
(78,309,o)
);
}
);
width = 207;
},
{
layerId = "39F366B4-F9D9-4E9E-8D0D-E9C65FBDF7D6";
shapes = (
{
closed = 1;
nodes = (
(158,676,o),
(138,700,o),
(103,700,cs),
(76,700,o),
(57,675,o),
(57,646,cs),
(57,575,o),
(155,581,o),
(157,637,cs)
);
},
{
closed = 1;
nodes = (
(90,31,o),
(46,-52,cs),
(-3,-145,o),
(-69,-162,o),
(-113,-154,cs),
(-174,-143,o),
(-192,-104,o),
(-201,-52,cs),
(-203,-42,o),
(-213,-16,o),
(-226,-17,c),
(-241,-20,o),
(-250,-45,o),
(-250,-72,cs),
(-250,-110,o),
(-236,-159,o),
(-212,-180,cs),
(-167,-219,o),
(-123,-219,o),
(-82,-219,c),
(-35,-219,o),
(12,-200,o),
(52,-168,c),
(168,-85,o),
(154,134,o),
(154,158,c),
(150,260,o),
(149,382,o),
(147,484,cs),
(147,499,o),
(137,500,o),
(125,500,cs),
(98,500,o),
(41,481,o),
(41,463,c),
(42,451,o),
(67,425,o),
(71,380,cs),
(78,309,o)
);
}
);
width = 207;
},
{
layerId = "25AC2642-BCCD-43FA-98BC-574BD19E6D80";
shapes = (
{
closed = 1;
nodes = (
(158,676,o),
(138,700,o),
(103,700,cs),
(76,700,o),
(57,675,o),
(57,646,cs),
(57,575,o),
(155,581,o),
(157,637,cs)
);
},
{
closed = 1;
nodes = (
(90,31,o),
(46,-52,cs),
(-3,-145,o),
(-69,-162,o),
(-113,-154,cs),
(-174,-143,o),
(-192,-104,o),
(-201,-52,cs),
(-203,-42,o),
(-213,-16,o),
(-226,-17,c),
(-241,-20,o),
(-250,-45,o),
(-250,-72,cs),
(-250,-110,o),
(-236,-159,o),
(-212,-180,cs),
(-167,-219,o),
(-123,-219,o),
(-82,-219,c),
(-35,-219,o),
(12,-200,o),
(52,-168,c),
(168,-85,o),
(154,134,o),
(154,158,c),
(150,260,o),
(149,382,o),
(147,484,cs),
(147,499,o),
(137,500,o),
(125,500,cs),
(98,500,o),
(41,481,o),
(41,463,c),
(42,451,o),
(67,425,o),
(71,380,cs),
(78,309,o)
);
}
);
width = 207;
}
);
unicode = 106;
},
{
glyphname = k;
lastChange = "2024-05-10 17:17:36 +0000";
layers = (
{
layerId = m01;
shapes = (
{
closed = 1;
nodes = (
(307,213,o),
(368,127,o),
(435,72,cs),
(452,58,o),
(528,2,o),
(492,2,cs),
(352,2,o),
(313,0,o),
(301,4,c),
(301,11,o),
(313,23,o),
(318,28,cs),
(328,39,o),
(338,48,o),
(338,49,cs),
(334,83,o),
(269,151,o),
(246,183,cs),
(237,196,o),
(199,243,o),
(196,243,cs),
(196,244,o),
(147,203,o),
(134,177,cs),
(126,162,o),
(125,147,o),
(127,114,cs),
(130,58,o),
(155,33,o),
(152,9,cs),
(151,2,o),
(119,2,o),
(81,2,cs),
(50,2,o),
(31,1,o),
(30,9,cs),
(29,20,o),
(40,41,o),
(42,48,c),
(57,70,o),
(62,168,o),
(64,189,cs),
(68,226,o),
(62,405,o),
(62,603,cs),
(62,630,o),
(50,661,o),
(34,681,c),
(45,706,o),
(141,772,o),
(166,772,cs),
(168,772,o),
(171,772,o),
(171,766,cs),
(171,753,o),
(159,736,o),
(154,724,cs),
(146,703,o),
(144,680,o),
(141,657,cs),
(135,608,o),
(134,314,o),
(137,303,c),
(142,295,o),
(154,288,o),
(160,291,cs),
(177,299,o),
(234,344,o),
(246,356,cs),
(286,395,o),
(311,398,o),
(311,457,cs),
(311,463,o),
(310,481,o),
(316,485,cs),
(326,491,o),
(409,473,o),
(436,473,cs),
(452,473,o),
(466,470,o),
(467,459,cs),
(468,452,o),
(420,420,o),
(410,413,cs),
(374,384,o),
(285,315,o),
(252,277,c)
);
}
);
width = 532;
},
{
layerId = "39F366B4-F9D9-4E9E-8D0D-E9C65FBDF7D6";
shapes = (
{
closed = 1;
nodes = (
(307,213,o),
(368,127,o),
(435,72,cs),
(452,58,o),
(528,2,o),
(492,2,cs),
(352,2,o),
(313,0,o),
(301,4,c),
(301,11,o),
(313,23,o),
(318,28,cs),
(328,39,o),
(338,48,o),
(338,49,cs),
(334,83,o),
(269,151,o),
(246,183,cs),
(237,196,o),
(199,243,o),
(196,243,cs),
(196,244,o),
(147,203,o),
(134,177,cs),
(126,162,o),
(125,147,o),
(127,114,cs),
(130,58,o),
(155,33,o),
(152,9,cs),
(151,2,o),
(119,2,o),
(81,2,cs),
(50,2,o),
(31,1,o),
(30,9,cs),
(29,20,o),
(40,41,o),
(42,48,c),
(57,70,o),
(62,168,o),
(64,189,cs),
(68,226,o),
(62,405,o),
(62,603,cs),
(62,630,o),
(50,661,o),
(34,681,c),
(45,706,o),
(141,772,o),
(166,772,cs),
(168,772,o),
(171,772,o),
(171,766,cs),
(171,753,o),
(159,736,o),
(154,724,cs),
(146,703,o),
(144,680,o),
(141,657,cs),
(135,608,o),
(134,314,o),
(137,303,c),
(142,295,o),
(154,288,o),
(160,291,cs),
(177,299,o),
(234,344,o),
(246,356,cs),
(286,395,o),
(311,398,o),
(311,457,cs),
(311,463,o),
(310,481,o),
(316,485,cs),
(326,491,o),
(409,473,o),
(436,473,cs),
(452,473,o),
(466,470,o),
(467,459,cs),
(468,452,o),
(420,420,o),
(410,413,cs),
(374,384,o),
(285,315,o),
(252,277,c)
);
}
);
width = 532;
},
{
layerId = "25AC2642-BCCD-43FA-98BC-574BD19E6D80";
shapes = (
{
closed = 1;
nodes = (
(307,213,o),
(368,127,o),
(435,72,cs),
(452,58,o),
(528,2,o),
(492,2,cs),
(352,2,o),
(313,0,o),
(301,4,c),
(301,11,o),
(313,23,o),
(318,28,cs),
(328,39,o),
(338,48,o),
(338,49,cs),
(334,83,o),
(269,151,o),
(246,183,cs),
(237,196,o),
(199,243,o),
(196,243,cs),
(196,244,o),
(147,203,o),
(134,177,cs),
(126,162,o),
(125,147,o),
(127,114,cs),
(130,58,o),
(155,33,o),
(152,9,cs),
(151,2,o),
(119,2,o),
(81,2,cs),
(50,2,o),
(31,1,o),
(30,9,cs),
(29,20,o),
(40,41,o),
(42,48,c),
(57,70,o),
(62,168,o),
(64,189,cs),
(68,226,o),
(62,405,o),
(62,603,cs),
(62,630,o),
(50,661,o),
(34,681,c),
(45,706,o),
(141,772,o),
(166,772,cs),
(168,772,o),
(171,772,o),
(171,766,cs),
(171,753,o),
(159,736,o),
(154,724,cs),
(146,703,o),
(144,680,o),
(141,657,cs),
(135,608,o),
(134,314,o),
(137,303,c),
(142,295,o),
(154,288,o),
(160,291,cs),
(177,299,o),
(234,344,o),
(246,356,cs),
(286,395,o),
(311,398,o),
(311,457,cs),
(311,463,o),
(310,481,o),
(316,485,cs),
(326,491,o),
(409,473,o),
(436,473,cs),
(452,473,o),
(466,470,o),
(467,459,cs),
(468,452,o),
(420,420,o),
(410,413,cs),
(374,384,o),
(285,315,o),
(252,277,c)
);
}
);
width = 532;
}
);
unicode = 107;
},
{
glyphname = l;
lastChange = "2024-05-10 17:17:56 +0000";
layers = (
{
layerId = m01;
shapes = (
{
closed = 1;
nodes = (
(163,574,o),
(161,478,o),
(161,382,cs),
(161,198,o),
(164,103,o),
(184,70,cs),
(193,55,o),
(225,34,o),
(228,13,cs),
(228,10,o),
(227,3,o),
(213,2,cs),
(200,1,o),
(150,1,o),
(124,1,cs),
(84,1,o),
(48,0,o),
(45,9,cs),
(42,18,o),
(51,27,o),
(60,35,cs),
(68,42,o),
(77,66,o),
(80,85,cs),
(85,117,o),
(89,289,o),
(88,341,c),
(95,430,o),
(85,570,o),
(67,589,cs),
(53,604,o),
(35,610,o),
(31,627,cs),
(29,636,o),
(32,646,o),
(39,649,cs),
(54,656,o),
(92,657,o),
(106,663,cs),
(129,673,o),
(139,684,o),
(157,684,cs),
(165,684,o),
(171,682,o),
(171,666,c)
);
}
);
width = 258;
},
{
layerId = "39F366B4-F9D9-4E9E-8D0D-E9C65FBDF7D6";
shapes = (
{
closed = 1;
nodes = (
(163,574,o),
(161,478,o),
(161,382,cs),
(161,198,o),
(164,103,o),
(184,70,cs),
(193,55,o),
(225,34,o),
(228,13,cs),
(228,10,o),
(227,3,o),
(213,2,cs),
(200,1,o),
(150,1,o),
(124,1,cs),
(84,1,o),
(48,0,o),
(45,9,cs),
(42,18,o),
(51,27,o),
(60,35,cs),
(68,42,o),
(77,66,o),
(80,85,cs),
(85,117,o),
(89,289,o),
(88,341,c),
(95,430,o),
(85,570,o),
(67,589,cs),
(53,604,o),
(35,610,o),
(31,627,cs),
(29,636,o),
(32,646,o),
(39,649,cs),
(54,656,o),
(92,657,o),
(106,663,cs),
(129,673,o),
(139,684,o),
(157,684,cs),
(165,684,o),
(171,682,o),
(171,666,c)
);
}
);
width = 258;
},
{
layerId = "25AC2642-BCCD-43FA-98BC-574BD19E6D80";
shapes = (
{
closed = 1;
nodes = (
(163,574,o),
(161,478,o),
(161,382,cs),
(161,198,o),
(164,103,o),
(184,70,cs),
(193,55,o),
(225,34,o),
(228,13,cs),
(228,10,o),
(227,3,o),
(213,2,cs),
(200,1,o),
(150,1,o),
(124,1,cs),
(84,1,o),
(48,0,o),
(45,9,cs),
(42,18,o),
(51,27,o),
(60,35,cs),
(68,42,o),
(77,66,o),
(80,85,cs),
(85,117,o),
(89,289,o),
(88,341,c),
(95,430,o),
(85,570,o),
(67,589,cs),
(53,604,o),
(35,610,o),
(31,627,cs),
(29,636,o),
(32,646,o),
(39,649,cs),
(54,656,o),
(92,657,o),
(106,663,cs),
(129,673,o),
(139,684,o),
(157,684,cs),
(165,684,o),
(171,682,o),
(171,666,c)
);
}
);
width = 258;
}
);
unicode = 108;
},
{
glyphname = m;
lastChange = "2024-05-10 17:38:05 +0000";
layers = (
{
layerId = m01;
shapes = (
{
closed = 1;
nodes = (
(102,245,o),
(101,216,o),
(102,191,cs),
(106,79,o),
(145,22,o),
(140,5,cs),
(138,-1,o),
(115,0,o),
(90,0,cs),
(29,0,o),
(32,8,o),
(32,72,cs),
(32,133,o),
(36,285,o),
(36,348,cs),
(36,376,o),
(34,397,o),
(32,407,cs),
(25,440,o),
(33,450,o),
(62,450,cs),
(77,450,o),
(96,444,o),
(105,430,cs),
(110,422,o),
(111,408,o),
(111,398,c),
(193,500,o),
(322,459,o),
(362,408,c),
(393,369,l),
(495,500,o),
(610,491,o),
(682,452,cs),
(737,422,o),
(807,369,o),
(807,237,cs),
(807,127,o),
(758,91,o),
(727,58,c),
(722,48,o),
(792,29,o),
(792,14,cs),
(792,-3,o),
(731,0,o),
(710,0,cs),
(651,0,o),
(639,7,o),
(640,34,cs),
(641,57,o),
(674,74,o),
(701,118,cs),
(727,159,o),
(730,212,o),
(730,257,cs),
(730,327,o),
(666,414,o),
(554,403,c),
(469,390,o),
(420,303,o),
(420,222,cs),
(420,176,o),
(420,120,o),
(430,72,cs),
(434,53,o),
(477,34,o),
(476,11,cs),
(475,-1,o),
(426,0,o),
(408,0,cs),
(357,0,o),
(306,0,o),
(305,14,c),
(306,46,o),
(340,40,o),
(345,75,cs),
(357,161,o),
(353,236,o),
(346,307,cs),
(344,330,o),
(320,387,o),
(281,396,cs),
(267,399,o),
(141,435,o),
(102,270,c)
);
},
{
closed = 1;
nodes = (
(249,169,o),
(267,177,o),
(279,191,cs),
(289,203,o),
(296,218,o),
(296,235,cs),
(296,252,o),
(290,267,o),
(279,279,cs),
(267,292,o),
(249,301,o),
(230,301,cs),
(211,301,o),
(193,292,o),
(181,279,cs),
(171,267,o),
(164,252,o),
(164,235,cs),
(164,219,o),
(170,203,o),
(180,192,cs),
(193,178,o),
(210,169,o),
(230,169,cs)
);
},
{
closed = 1;
nodes = (
(589,169,o),
(607,177,o),
(619,191,cs),
(629,203,o),
(636,218,o),
(636,235,cs),
(636,252,o),
(630,267,o),
(619,279,cs),
(607,292,o),
(589,301,o),
(570,301,cs),
(551,301,o),
(533,292,o),
(521,279,cs),
(511,267,o),
(504,252,o),
(504,235,cs),
(504,219,o),
(510,203,o),
(520,192,cs),
(533,178,o),
(550,169,o),
(570,169,cs)
);
}
);
width = 837;
},
{
layerId = "39F366B4-F9D9-4E9E-8D0D-E9C65FBDF7D6";
shapes = (
{
closed = 1;
nodes = (
(102,245,o),
(101,216,o),
(102,191,cs),
(106,79,o),
(145,22,o),
(140,5,cs),
(138,-1,o),
(115,0,o),
(90,0,cs),
(29,0,o),
(32,8,o),
(32,72,cs),
(32,133,o),
(36,285,o),
(36,348,cs),
(36,376,o),
(34,397,o),
(32,407,cs),
(25,440,o),
(33,450,o),
(62,450,cs),
(77,450,o),
(96,444,o),
(105,430,cs),
(110,422,o),
(111,408,o),
(111,398,c),
(193,500,o),
(322,459,o),
(362,408,c),
(393,369,l),
(495,500,o),
(610,491,o),
(682,452,cs),
(737,422,o),
(807,369,o),
(807,237,cs),
(807,127,o),
(758,91,o),
(727,58,c),
(722,48,o),
(792,29,o),
(792,14,cs),
(792,-3,o),
(731,0,o),
(710,0,cs),
(651,0,o),
(639,7,o),
(640,34,cs),
(641,57,o),
(674,74,o),
(701,118,cs),
(727,159,o),
(730,212,o),
(730,257,cs),
(730,327,o),
(666,414,o),
(554,403,c),
(469,390,o),
(420,303,o),
(420,222,cs),
(420,176,o),
(420,120,o),
(430,72,cs),
(434,53,o),
(477,34,o),
(476,11,cs),
(475,-1,o),
(426,0,o),
(408,0,cs),
(357,0,o),
(306,0,o),
(305,14,c),
(306,46,o),
(340,40,o),
(345,75,cs),
(357,161,o),
(353,236,o),
(346,307,cs),
(344,330,o),
(320,387,o),
(281,396,cs),
(267,399,o),
(141,435,o),
(102,270,c)
);
},
{
closed = 1;
nodes = (
(249,149,o),
(242,196,o),
(254,210,cs),
(264,222,o),
(316,218,o),
(316,235,cs),
(316,252,o),
(265,247,o),
(254,259,cs),
(242,272,o),
(249,321,o),
(230,321,cs),
(211,321,o),
(217,272,o),
(205,259,cs),
(195,247,o),
(144,252,o),
(144,235,cs),
(144,219,o),
(195,221,o),
(205,210,cs),
(218,196,o),
(210,149,o),
(230,149,cs)
);
},
{
closed = 1;
nodes = (
(589,149,o),
(582,196,o),
(594,210,cs),
(604,222,o),
(656,218,o),
(656,235,cs),
(656,252,o),
(605,247,o),
(594,259,cs),
(582,272,o),
(589,321,o),
(570,321,cs),
(551,321,o),
(557,272,o),
(545,259,cs),
(535,247,o),
(484,252,o),
(484,235,cs),
(484,219,o),
(535,221,o),
(545,210,cs),
(558,196,o),
(550,149,o),
(570,149,cs)
);
}
);
width = 837;
},
{
layerId = "25AC2642-BCCD-43FA-98BC-574BD19E6D80";
shapes = (
{
closed = 1;
nodes = (
(102,245,o),
(101,216,o),
(102,191,cs),
(106,79,o),
(145,22,o),
(140,5,cs),
(138,-1,o),
(115,0,o),
(90,0,cs),
(29,0,o),
(32,8,o),
(32,72,cs),
(32,133,o),
(36,285,o),
(36,348,cs),
(36,376,o),
(34,397,o),
(32,407,cs),
(25,440,o),
(33,450,o),
(62,450,cs),
(77,450,o),
(96,444,o),
(105,430,cs),
(110,422,o),
(111,408,o),
(111,398,c),
(193,500,o),
(322,459,o),
(362,408,c),
(393,369,l),
(495,500,o),
(610,491,o),
(682,452,cs),
(737,422,o),
(807,369,o),
(807,237,cs),
(807,127,o),
(758,91,o),
(727,58,c),
(722,48,o),
(792,29,o),
(792,14,cs),
(792,-3,o),
(731,0,o),
(710,0,cs),
(651,0,o),
(639,7,o),
(640,34,cs),
(641,57,o),
(674,74,o),
(701,118,cs),
(727,159,o),
(730,212,o),
(730,257,cs),
(730,327,o),
(666,414,o),
(554,403,c),
(469,390,o),
(420,303,o),
(420,222,cs),
(420,176,o),
(420,120,o),
(430,72,cs),
(434,53,o),
(477,34,o),
(476,11,cs),
(475,-1,o),
(426,0,o),
(408,0,cs),
(357,0,o),
(306,0,o),
(305,14,c),
(306,46,o),
(340,40,o),
(345,75,cs),
(357,161,o),
(353,236,o),
(346,307,cs),
(344,330,o),
(320,387,o),
(281,396,cs),
(267,399,o),
(141,435,o),
(102,270,c)
);
},
{
closed = 1;
nodes = (
(249,199,o),
(287,157,o),
(299,171,cs),
(309,183,o),
(266,218,o),
(266,235,cs),
(266,252,o),
(310,287,o),
(299,299,cs),
(287,312,o),
(249,271,o),
(230,271,cs),
(211,271,o),
(173,312,o),
(161,299,cs),
(151,287,o),
(194,252,o),
(194,235,cs),
(194,219,o),
(150,183,o),
(160,172,cs),
(173,158,o),
(210,199,o),
(230,199,cs)
);
},
{
closed = 1;
nodes = (
(589,199,o),
(627,157,o),
(639,171,cs),
(649,183,o),
(606,218,o),
(606,235,cs),
(606,252,o),
(650,287,o),
(639,299,cs),
(627,312,o),
(589,271,o),
(570,271,cs),
(551,271,o),
(513,312,o),
(501,299,cs),
(491,287,o),
(534,252,o),
(534,235,cs),
(534,219,o),
(490,183,o),
(500,172,cs),
(513,158,o),
(550,199,o),
(570,199,cs)
);
}
);
width = 837;
}
);
unicode = 109;
},
{
glyphname = n;
lastChange = "2024-05-10 17:38:44 +0000";
layers = (
{
layerId = m01;
shapes = (
{
closed = 1;
nodes = (
(208,517,o),
(357,514,o),
(424,467,cs),
(476,431,o),
(533,382,o),
(533,245,cs),
(533,131,o),
(483,94,o),
(452,60,c),
(447,50,o),
(518,30,o),
(518,15,cs),
(518,-3,o),
(456,1,o),
(435,1,cs),
(375,1,o),
(355,1,o),
(356,35,cs),
(357,59,o),
(399,77,o),
(426,122,cs),
(452,164,o),
(460,219,o),
(460,266,cs),
(460,349,o),
(391,428,o),
(278,417,c),
(192,403,o),
(138,313,o),
(138,230,cs),
(138,182,o),
(138,124,o),
(142,75,cs),
(144,55,o),
(190,24,o),
(189,11,cs),
(188,-1,o),
(138,0,o),
(120,0,cs),
(69,0,o),
(37,0,o),
(36,15,c),
(37,48,o),
(68,31,o),
(67,78,cs),
(65,167,o),
(68,263,o),
(68,336,cs),
(68,360,o),
(61,398,o),
(33,428,cs),
(14,449,o),
(108,502,o),
(120,467,cs),
(138,413,l)
);
},
{
closed = 1;
nodes = (
(309,179,o),
(327,187,o),
(339,201,cs),
(349,213,o),
(356,228,o),
(356,245,cs),
(356,262,o),
(350,277,o),
(339,289,cs),
(327,302,o),
(309,311,o),
(290,311,cs),
(271,311,o),
(253,302,o),
(241,289,cs),
(231,277,o),
(224,262,o),
(224,245,cs),
(224,229,o),
(230,213,o),
(240,202,cs),
(253,188,o),
(270,179,o),
(290,179,cs)
);
}
);
width = 563;
},
{
layerId = "39F366B4-F9D9-4E9E-8D0D-E9C65FBDF7D6";
shapes = (
{
closed = 1;
nodes = (
(208,517,o),
(357,514,o),
(424,467,cs),
(476,431,o),
(533,382,o),
(533,245,cs),
(533,131,o),
(483,94,o),
(452,60,c),
(447,50,o),
(518,30,o),
(518,15,cs),
(518,-3,o),
(456,1,o),
(435,1,cs),
(375,1,o),
(355,1,o),
(356,35,cs),
(357,59,o),
(399,77,o),
(426,122,cs),
(452,164,o),
(460,219,o),
(460,266,cs),
(460,349,o),
(391,428,o),
(278,417,c),
(192,403,o),
(138,313,o),
(138,230,cs),
(138,182,o),
(138,124,o),
(142,75,cs),
(144,55,o),
(190,24,o),
(189,11,cs),
(188,-1,o),
(138,0,o),
(120,0,cs),
(69,0,o),
(37,0,o),
(36,15,c),
(37,48,o),
(68,31,o),
(67,78,cs),
(65,167,o),
(68,263,o),
(68,336,cs),
(68,360,o),
(61,398,o),
(33,428,cs),
(14,449,o),
(108,502,o),
(120,467,cs),
(138,413,l)
);
},
{
closed = 1;
nodes = (
(309,209,o),
(347,167,o),
(359,181,cs),
(369,193,o),
(326,228,o),
(326,245,cs),
(326,262,o),
(370,297,o),
(359,309,cs),
(347,322,o),
(309,281,o),
(290,281,cs),
(271,281,o),
(233,322,o),
(221,309,cs),
(211,297,o),
(254,262,o),
(254,245,cs),
(254,229,o),
(210,193,o),
(220,182,cs),
(233,168,o),
(270,209,o),
(290,209,cs)
);
}
);
width = 563;
},
{
layerId = "25AC2642-BCCD-43FA-98BC-574BD19E6D80";
shapes = (
{
closed = 1;
nodes = (
(208,517,o),
(357,514,o),
(424,467,cs),
(476,431,o),
(533,382,o),
(533,245,cs),
(533,131,o),
(483,94,o),
(452,60,c),
(447,50,o),
(518,30,o),
(518,15,cs),
(518,-3,o),
(456,1,o),
(435,1,cs),
(375,1,o),
(355,1,o),
(356,35,cs),
(357,59,o),
(399,77,o),
(426,122,cs),
(452,164,o),
(460,219,o),
(460,266,cs),
(460,349,o),
(391,428,o),
(278,417,c),
(192,403,o),
(138,313,o),
(138,230,cs),
(138,182,o),
(138,124,o),
(142,75,cs),
(144,55,o),
(190,24,o),
(189,11,cs),
(188,-1,o),
(138,0,o),
(120,0,cs),
(69,0,o),
(37,0,o),
(36,15,c),
(37,48,o),
(68,31,o),
(67,78,cs),
(65,167,o),
(68,263,o),
(68,336,cs),
(68,360,o),
(61,398,o),
(33,428,cs),
(14,449,o),
(108,502,o),
(120,467,cs),
(138,413,l)
);
},
{
closed = 1;
nodes = (
(309,149,o),
(302,196,o),
(314,210,cs),
(324,222,o),
(376,218,o),
(376,235,cs),
(376,252,o),
(325,247,o),
(314,259,cs),
(302,272,o),
(309,321,o),
(290,321,cs),
(271,321,o),
(277,272,o),
(265,259,cs),
(255,247,o),
(204,252,o),
(204,235,cs),
(204,219,o),
(255,221,o),
(265,210,cs),
(278,196,o),
(270,149,o),
(290,149,cs)
);
}
);
width = 563;
}
);
unicode = 110;
},
{
glyphname = o;
lastChange = "2024-05-10 17:21:21 +0000";
layers = (
{
layerId = m01;
shapes = (
{
closed = 1;
nodes = (
(37,364,o),
(47,269,o),
(55,217,cs),
(61,178,o),
(92,90,o),
(160,45,cs),
(225,2,o),
(273,-3,o),
(329,1,cs),
(438,9,o),
(547,90,o),
(547,253,cs),
(547,386,o),
(486,451,o),
(422,488,cs),
(351,529,o),
(227,530,o),
(147,458,c)
);
},
{
closed = 1;
nodes = (
(466,147,o),
(405,75,o),
(295,75,cs),
(232,75,o),
(132,144,o),
(132,262,cs),
(132,364,o),
(218,424,o),
(281,433,c),
(405,442,o),
(466,345,o),
(466,264,cs)
);
},
{
closed = 1;
nodes = (
(361,299,o),
(342,320,o),
(305,320,cs),
(272,320,o),
(245,296,o),
(245,262,cs),
(245,227,o),
(265,201,o),
(305,201,cs),
(346,201,o),
(372,226,o),
(365,274,cs)
);
}
);
width = 597;
},
{
layerId = "39F366B4-F9D9-4E9E-8D0D-E9C65FBDF7D6";
shapes = (
{
closed = 1;
nodes = (
(37,364,o),
(47,269,o),
(55,217,cs),
(61,178,o),
(92,90,o),
(160,45,cs),
(225,2,o),
(273,-3,o),
(329,1,cs),
(438,9,o),
(547,90,o),
(547,253,cs),
(547,386,o),
(486,451,o),
(422,488,cs),
(351,529,o),
(227,530,o),
(147,458,c)
);
},
{
closed = 1;
nodes = (
(466,147,o),
(405,75,o),
(295,75,cs),
(232,75,o),
(132,144,o),
(132,262,cs),
(132,364,o),
(218,424,o),
(281,433,c),
(405,442,o),
(466,345,o),
(466,264,cs)
);
},
{
closed = 1;
nodes = (
(361,299,o),
(342,320,o),
(305,320,cs),
(272,320,o),
(245,296,o),
(245,262,cs),
(245,227,o),
(265,201,o),
(305,201,cs),
(346,201,o),
(372,226,o),
(365,274,cs)
);
}
);
width = 597;
},
{
layerId = "25AC2642-BCCD-43FA-98BC-574BD19E6D80";
shapes = (
{
closed = 1;
nodes = (
(37,364,o),
(47,269,o),
(55,217,cs),
(61,178,o),
(92,90,o),
(160,45,cs),
(225,2,o),
(273,-3,o),
(329,1,cs),
(438,9,o),
(547,90,o),
(547,253,cs),
(547,386,o),
(486,451,o),
(422,488,cs),
(351,529,o),
(227,530,o),
(147,458,c)
);
},
{
closed = 1;
nodes = (
(466,147,o),
(405,75,o),
(295,75,cs),
(232,75,o),
(132,144,o),
(132,262,cs),
(132,364,o),
(218,424,o),
(281,433,c),
(405,442,o),
(466,345,o),
(466,264,cs)
);
},
{
closed = 1;
nodes = (
(361,299,o),
(342,320,o),
(305,320,cs),
(272,320,o),
(245,296,o),
(245,262,cs),
(245,227,o),
(265,201,o),
(305,201,cs),
(346,201,o),
(372,226,o),
(365,274,cs)
);
}
);
width = 597;
}
);
unicode = 111;
},
{
glyphname = p;
lastChange = "2024-05-10 17:28:11 +0000";
layers = (
{
layerId = m01;
shapes = (
{
closed = 1;
nodes = (
(311,494,o),
(273,491,o),
(236,481,cs),
(216,476,o),
(185,455,o),
(164,455,cs),
(154,455,o),
(148,451,o),
(143,469,cs),
(140,479,o),
(142,519,o),
(121,505,cs),
(74,473,o),
(74,478,o),
(25,454,cs),
(-5,439,o),
(75,409,o),
(75,371,cs),
(74,286,o),
(87,-183,o),
(70,-224,cs),
(68,-228,o),
(63,-244,o),
(59,-258,cs),
(56,-270,o),
(75,-272,o),
(76,-272,cs),
(98,-273,o),
(182,-253,o),
(182,-242,cs),
(182,-232,o),
(177,-228,o),
(172,-224,cs),
(144,-205,o),
(148,-179,o),
(145,-162,cs),
(139,-132,o),
(139,60,o),
(150,66,c),
(221,0,o),
(352,-19,o),
(431,25,cs),
(497,62,o),
(566,116,o),
(566,245,cs),
(566,406,o),
(451,477,o),
(344,491,cs)
);
},
{
closed = 1;
nodes = (
(393,430,o),
(490,368,o),
(490,242,cs),
(490,164,o),
(415,63,o),
(294,72,c),
(210,85,o),
(150,145,o),
(150,244,cs),
(150,359,o),
(233,409,o),
(294,417,cs)
);
},
{
closed = 1;
nodes = (
(339,179,o),
(357,187,o),
(369,201,cs),
(379,213,o),
(386,228,o),
(386,245,cs),
(386,262,o),
(380,277,o),
(369,289,cs),
(357,302,o),
(339,311,o),
(320,311,cs),
(301,311,o),
(283,302,o),
(271,289,cs),
(261,277,o),
(254,262,o),
(254,245,cs),
(254,229,o),
(260,213,o),
(270,202,cs),
(283,188,o),
(300,179,o),
(320,179,cs)
);
}
);
width = 600;
},
{
layerId = "39F366B4-F9D9-4E9E-8D0D-E9C65FBDF7D6";
shapes = (
{
closed = 1;
nodes = (
(311,494,o),
(273,491,o),
(236,481,cs),
(216,476,o),
(185,455,o),
(164,455,cs),
(154,455,o),
(148,451,o),
(143,469,cs),
(140,479,o),
(142,519,o),
(121,505,cs),
(74,473,o),
(74,478,o),
(25,454,cs),
(-5,439,o),
(75,409,o),
(75,371,cs),
(74,286,o),
(87,-183,o),
(70,-224,cs),
(68,-228,o),
(63,-244,o),
(59,-258,cs),
(56,-270,o),
(75,-272,o),
(76,-272,cs),
(98,-273,o),
(182,-253,o),
(182,-242,cs),
(182,-232,o),
(177,-228,o),
(172,-224,cs),
(144,-205,o),
(148,-179,o),
(145,-162,cs),
(139,-132,o),
(139,60,o),
(150,66,c),
(221,0,o),
(352,-19,o),
(431,25,cs),
(497,62,o),
(566,116,o),
(566,245,cs),
(566,406,o),
(451,477,o),
(344,491,cs)
);
},
{
closed = 1;
nodes = (
(393,430,o),
(490,368,o),
(490,242,cs),
(490,164,o),
(415,63,o),
(294,72,c),
(210,85,o),
(150,145,o),
(150,244,cs),
(150,359,o),
(233,409,o),
(294,417,cs)
);
},
{
closed = 1;
nodes = (
(339,159,o),
(332,206,o),
(344,220,cs),
(354,232,o),
(406,228,o),
(406,245,cs),
(406,262,o),
(355,257,o),
(344,269,cs),
(332,282,o),
(339,331,o),
(320,331,cs),
(301,331,o),
(307,282,o),
(295,269,cs),
(285,257,o),
(234,262,o),
(234,245,cs),
(234,229,o),
(285,231,o),
(295,220,cs),
(308,206,o),
(300,159,o),
(320,159,cs)
);
}
);
width = 600;
},
{
layerId = "25AC2642-BCCD-43FA-98BC-574BD19E6D80";
shapes = (
{
closed = 1;
nodes = (
(311,494,o),
(273,491,o),
(236,481,cs),
(216,476,o),
(185,455,o),
(164,455,cs),
(154,455,o),
(148,451,o),
(143,469,cs),
(140,479,o),
(142,519,o),
(121,505,cs),
(74,473,o),
(74,478,o),
(25,454,cs),
(-5,439,o),
(75,409,o),
(75,371,cs),
(74,286,o),
(87,-183,o),
(70,-224,cs),
(68,-228,o),
(63,-244,o),
(59,-258,cs),
(56,-270,o),
(75,-272,o),
(76,-272,cs),
(98,-273,o),
(182,-253,o),
(182,-242,cs),
(182,-232,o),
(177,-228,o),
(172,-224,cs),
(144,-205,o),
(148,-179,o),
(145,-162,cs),
(139,-132,o),
(139,60,o),
(150,66,c),
(221,0,o),
(352,-19,o),
(431,25,cs),
(497,62,o),
(566,116,o),
(566,245,cs),
(566,406,o),
(451,477,o),
(344,491,cs)
);
},
{
closed = 1;
nodes = (
(393,430,o),
(490,368,o),
(490,242,cs),
(490,164,o),
(415,63,o),
(294,72,c),
(210,85,o),
(150,145,o),
(150,244,cs),
(150,359,o),
(233,409,o),
(294,417,cs)
);
},
{
closed = 1;
nodes = (
(339,209,o),
(377,167,o),
(389,181,cs),
(399,193,o),
(356,228,o),
(356,245,cs),
(356,262,o),
(400,297,o),
(389,309,cs),
(377,322,o),
(339,281,o),
(320,281,cs),
(301,281,o),
(263,322,o),
(251,309,cs),
(241,297,o),
(284,262,o),
(284,245,cs),
(284,229,o),
(240,193,o),
(250,182,cs),
(263,168,o),
(300,209,o),
(320,209,cs)
);
}
);
width = 600;
}
);
unicode = 112;
},
{
glyphname = q;
lastChange = "2024-05-10 17:29:42 +0000";
layers = (
{
layerId = m01;
shapes = (
{
closed = 1;
nodes = (
(165,477,o),
(50,406,o),
(50,245,cs),
(50,116,o),
(119,62,o),
(185,25,cs),
(264,-19,o),
(395,0,o),
(466,66,c),
(477,60,o),
(477,-132,o),
(471,-162,cs),
(468,-179,o),
(472,-205,o),
(444,-224,cs),
(439,-228,o),
(434,-232,o),
(434,-242,cs),
(434,-253,o),
(518,-273,o),
(540,-272,cs),
(541,-272,o),
(560,-270,o),
(557,-258,cs),
(553,-244,o),
(548,-228,o),
(546,-224,cs),
(529,-183,o),
(542,286,o),
(541,371,cs),
(541,409,o),
(621,439,o),
(591,454,cs),
(542,478,o),
(542,473,o),
(495,505,cs),
(474,519,o),
(476,479,o),
(473,469,cs),
(468,451,o),
(462,455,o),
(452,455,cs),
(431,455,o),
(400,476,o),
(380,481,cs),
(343,491,o),
(305,494,o),
(272,491,cs)
);
},
{
closed = 1;
nodes = (
(383,409,o),
(466,359,o),
(466,244,cs),
(466,145,o),
(406,85,o),
(322,72,c),
(201,63,o),
(126,164,o),
(126,242,cs),
(126,368,o),
(223,430,o),
(322,417,cs)
);
},
{
closed = 1;
nodes = (
(319,179,o),
(337,187,o),
(349,201,cs),
(359,213,o),
(366,228,o),
(366,245,cs),
(366,262,o),
(360,277,o),
(349,289,cs),
(337,302,o),
(319,311,o),
(300,311,cs),
(281,311,o),
(263,302,o),
(251,289,cs),
(241,277,o),
(234,262,o),
(234,245,cs),
(234,229,o),
(240,213,o),
(250,202,cs),
(263,188,o),
(280,179,o),
(300,179,cs)
);
}
);
width = 648;
},
{
layerId = "25AC2642-BCCD-43FA-98BC-574BD19E6D80";
shapes = (
{
closed = 1;
nodes = (
(165,477,o),
(50,406,o),
(50,245,cs),
(50,116,o),
(119,62,o),
(185,25,cs),
(264,-19,o),
(395,0,o),
(466,66,c),
(477,60,o),
(477,-132,o),
(471,-162,cs),
(468,-179,o),
(472,-205,o),
(444,-224,cs),
(439,-228,o),
(434,-232,o),
(434,-242,cs),
(434,-253,o),
(518,-273,o),
(540,-272,cs),
(541,-272,o),
(560,-270,o),
(557,-258,cs),
(553,-244,o),
(548,-228,o),
(546,-224,cs),
(529,-183,o),
(542,286,o),
(541,371,cs),
(541,409,o),
(621,439,o),
(591,454,cs),
(542,478,o),
(542,473,o),
(495,505,cs),
(474,519,o),
(476,479,o),
(473,469,cs),
(468,451,o),
(462,455,o),
(452,455,cs),
(431,455,o),
(400,476,o),
(380,481,cs),
(343,491,o),
(305,494,o),
(272,491,cs)
);
},
{
closed = 1;
nodes = (
(383,409,o),
(466,359,o),
(466,244,cs),
(466,145,o),
(406,85,o),
(322,72,c),
(201,63,o),
(126,164,o),
(126,242,cs),
(126,368,o),
(223,430,o),
(322,417,cs)
);
},
{
closed = 1;
nodes = (
(319,159,o),
(312,206,o),
(324,220,cs),
(334,232,o),
(386,228,o),
(386,245,cs),
(386,262,o),
(335,257,o),
(324,269,cs),
(312,282,o),
(319,331,o),
(300,331,cs),
(281,331,o),
(287,282,o),
(275,269,cs),
(265,257,o),
(214,262,o),
(214,245,cs),
(214,229,o),
(265,231,o),
(275,220,cs),
(288,206,o),
(280,159,o),
(300,159,cs)
);
}
);
width = 648;
},
{
layerId = "39F366B4-F9D9-4E9E-8D0D-E9C65FBDF7D6";
shapes = (
{
closed = 1;
nodes = (
(165,477,o),
(50,406,o),
(50,245,cs),
(50,116,o),
(119,62,o),
(185,25,cs),
(264,-19,o),
(395,0,o),
(466,66,c),
(477,60,o),
(477,-132,o),
(471,-162,cs),
(468,-179,o),
(472,-205,o),
(444,-224,cs),
(439,-228,o),
(434,-232,o),
(434,-242,cs),
(434,-253,o),
(518,-273,o),
(540,-272,cs),
(541,-272,o),
(560,-270,o),
(557,-258,cs),
(553,-244,o),
(548,-228,o),
(546,-224,cs),
(529,-183,o),
(542,286,o),
(541,371,cs),
(541,409,o),
(621,439,o),
(591,454,cs),
(542,478,o),
(542,473,o),
(495,505,cs),
(474,519,o),
(476,479,o),
(473,469,cs),
(468,451,o),
(462,455,o),
(452,455,cs),
(431,455,o),
(400,476,o),
(380,481,cs),
(343,491,o),
(305,494,o),
(272,491,cs)
);
},
{
closed = 1;
nodes = (
(383,409,o),
(466,359,o),
(466,244,cs),
(466,145,o),
(406,85,o),
(322,72,c),
(201,63,o),
(126,164,o),
(126,242,cs),
(126,368,o),
(223,430,o),
(322,417,cs)
);
},
{
closed = 1;
nodes = (
(319,209,o),
(357,167,o),
(369,181,cs),
(379,193,o),
(336,228,o),
(336,245,cs),
(336,262,o),
(380,297,o),
(369,309,cs),
(357,322,o),
(319,281,o),
(300,281,cs),
(281,281,o),
(243,322,o),
(231,309,cs),
(221,297,o),
(264,262,o),
(264,245,cs),
(264,229,o),
(220,193,o),
(230,182,cs),
(243,168,o),
(280,209,o),
(300,209,cs)
);
}
);
width = 648;
}
);
unicode = 113;
},
{
glyphname = r;
lastChange = "2024-05-10 17:23:35 +0000";
layers = (
{
layerId = m01;
shapes = (
{
closed = 1;
nodes = (
(144,406,o),
(146,459,o),
(146,499,cs),
(146,514,o),
(141,513,o),
(139,512,cs),
(75,475,o),
(50,484,o),
(50,465,c),
(51,452,o),
(72,437,o),
(79,390,cs),
(88,332,o),
(90,154,o),
(88,121,cs),
(83,54,o),
(50,3,o),
(68,1,cs),
(77,0,o),
(197,-3,o),
(201,4,cs),
(212,23,o),
(179,31,o),
(170,84,cs),
(161,137,o),
(154,210,o),
(152,295,c),
(154,368,o),
(217,475,o),
(307,465,c),
(339,463,o),
(364,443,o),
(364,422,cs),
(364,400,o),
(350,391,o),
(336,391,cs),
(317,391,o),
(301,406,o),
(301,426,cs),
(301,446,o),
(296,453,o),
(282,453,cs),
(253,453,o),
(212,426,o),
(212,376,cs),
(212,364,o),
(217,325,o),
(230,305,cs),
(251,270,o),
(283,260,o),
(320,260,cs),
(370,260,o),
(403,315,o),
(405,367,cs),
(407,396,o),
(402,432,o),
(383,461,cs),
(370,480,o),
(339,500,o),
(292,500,c),
(206,497,o),
(167,447,o),
(139,391,c)
);
}
);
width = 455;
},
{
layerId = "39F366B4-F9D9-4E9E-8D0D-E9C65FBDF7D6";
shapes = (
{
closed = 1;
nodes = (
(144,406,o),
(146,459,o),
(146,499,cs),
(146,514,o),
(141,513,o),
(139,512,cs),
(75,475,o),
(50,484,o),
(50,465,c),
(51,452,o),
(72,437,o),
(79,390,cs),
(88,332,o),
(90,154,o),
(88,121,cs),
(83,54,o),
(50,3,o),
(68,1,cs),
(77,0,o),
(197,-3,o),
(201,4,cs),
(212,23,o),
(179,31,o),
(170,84,cs),
(161,137,o),
(154,210,o),
(152,295,c),
(154,368,o),
(217,475,o),
(307,465,c),
(339,463,o),
(364,443,o),
(364,422,cs),
(364,400,o),
(350,391,o),
(336,391,cs),
(317,391,o),
(301,406,o),
(301,426,cs),
(301,446,o),
(296,453,o),
(282,453,cs),
(253,453,o),
(212,426,o),
(212,376,cs),
(212,364,o),
(217,325,o),
(230,305,cs),
(251,270,o),
(283,260,o),
(320,260,cs),
(370,260,o),
(403,315,o),
(405,367,cs),
(407,396,o),
(402,432,o),
(383,461,cs),
(370,480,o),
(339,500,o),
(292,500,c),
(206,497,o),
(167,447,o),
(139,391,c)
);
}
);
width = 455;
},
{
layerId = "25AC2642-BCCD-43FA-98BC-574BD19E6D80";
shapes = (
{
closed = 1;
nodes = (
(144,406,o),
(146,459,o),
(146,499,cs),
(146,514,o),
(141,513,o),
(139,512,cs),
(75,475,o),
(50,484,o),
(50,465,c),
(51,452,o),
(72,437,o),
(79,390,cs),
(88,332,o),
(90,154,o),
(88,121,cs),
(83,54,o),
(50,3,o),
(68,1,cs),
(77,0,o),
(197,-3,o),
(201,4,cs),
(212,23,o),
(179,31,o),
(170,84,cs),
(161,137,o),
(154,210,o),
(152,295,c),
(154,368,o),
(217,475,o),
(307,465,c),
(339,463,o),
(364,443,o),
(364,422,cs),
(364,400,o),
(350,391,o),
(336,391,cs),
(317,391,o),
(301,406,o),
(301,426,cs),
(301,446,o),
(296,453,o),
(282,453,cs),
(253,453,o),
(212,426,o),
(212,376,cs),
(212,364,o),
(217,325,o),
(230,305,cs),
(251,270,o),
(283,260,o),
(320,260,cs),
(370,260,o),
(403,315,o),
(405,367,cs),
(407,396,o),
(402,432,o),
(383,461,cs),
(370,480,o),
(339,500,o),
(292,500,c),
(206,497,o),
(167,447,o),
(139,391,c)
);
}
);
width = 455;
}
);
unicode = 114;
},
{
glyphname = s;
lastChange = "2024-05-10 17:23:50 +0000";
layers = (
{
layerId = m01;
shapes = (
{
closed = 1;
nodes = (
(221,111,o),
(205,113,o),
(189,108,cs),
(147,95,o),
(140,0,o),
(232,0,cs),
(286,0,o),
(324,57,o),
(305,121,cs),
(286,185,o),
(234,205,o),
(185,205,cs),
(95,205,o),
(50,144,o),
(50,38,cs),
(50,-58,o),
(135,-142,o),
(251,-145,cs),
(322,-147,o),
(398,-125,o),
(443,-47,c),
(463,4,o),
(491,101,o),
(416,201,cs),
(354,284,o),
(165,341,o),
(166,395,cs),
(166,416,o),
(185,427,o),
(206,425,cs),
(262,419,o),
(311,372,o),
(344,372,cs),
(366,372,o),
(388,428,o),
(371,442,cs),
(342,466,o),
(271,497,o),
(230,500,cs),
(154,505,o),
(89,487,o),
(89,405,cs),
(89,284,o),
(219,265,o),
(315,186,cs),
(353,155,o),
(383,116,o),
(381,67,cs),
(377,-49,o),
(319,-88,o),
(240,-88,cs),
(188,-88,o),
(124,-69,o),
(92,6,cs),
(70,58,o),
(94,174,o),
(173,178,cs),
(227,181,o),
(285,127,o),
(243,98,c)
);
}
);
width = 515;
},
{
layerId = "39F366B4-F9D9-4E9E-8D0D-E9C65FBDF7D6";
shapes = (
{
closed = 1;
nodes = (
(221,111,o),
(205,113,o),
(189,108,cs),
(147,95,o),
(140,0,o),
(232,0,cs),
(286,0,o),
(324,57,o),
(305,121,cs),
(286,185,o),
(234,205,o),
(185,205,cs),
(95,205,o),
(50,144,o),
(50,38,cs),
(50,-58,o),
(135,-142,o),
(251,-145,cs),
(322,-147,o),
(398,-125,o),
(443,-47,c),
(463,4,o),
(491,101,o),
(416,201,cs),
(354,284,o),
(165,341,o),
(166,395,cs),
(166,416,o),
(185,427,o),
(206,425,cs),
(262,419,o),
(311,372,o),
(344,372,cs),
(366,372,o),
(388,428,o),
(371,442,cs),
(342,466,o),
(271,497,o),
(230,500,cs),
(154,505,o),
(89,487,o),
(89,405,cs),
(89,284,o),
(219,265,o),
(315,186,cs),
(353,155,o),
(383,116,o),
(381,67,cs),
(377,-49,o),
(319,-88,o),
(240,-88,cs),
(188,-88,o),
(124,-69,o),
(92,6,cs),
(70,58,o),
(94,174,o),
(173,178,cs),
(227,181,o),
(285,127,o),
(243,98,c)
);
}
);
width = 515;
},
{
layerId = "25AC2642-BCCD-43FA-98BC-574BD19E6D80";
shapes = (
{
closed = 1;
nodes = (
(221,111,o),
(205,113,o),
(189,108,cs),
(147,95,o),
(140,0,o),
(232,0,cs),
(286,0,o),
(324,57,o),
(305,121,cs),
(286,185,o),
(234,205,o),
(185,205,cs),
(95,205,o),
(50,144,o),
(50,38,cs),
(50,-58,o),
(135,-142,o),
(251,-145,cs),
(322,-147,o),
(398,-125,o),
(443,-47,c),
(463,4,o),
(491,101,o),
(416,201,cs),
(354,284,o),
(165,341,o),
(166,395,cs),
(166,416,o),
(185,427,o),
(206,425,cs),
(262,419,o),
(311,372,o),
(344,372,cs),
(366,372,o),
(388,428,o),
(371,442,cs),
(342,466,o),
(271,497,o),
(230,500,cs),
(154,505,o),
(89,487,o),
(89,405,cs),
(89,284,o),
(219,265,o),
(315,186,cs),
(353,155,o),
(383,116,o),
(381,67,cs),
(377,-49,o),
(319,-88,o),
(240,-88,cs),
(188,-88,o),
(124,-69,o),
(92,6,cs),
(70,58,o),
(94,174,o),
(173,178,cs),
(227,181,o),
(285,127,o),
(243,98,c)
);
}
);
width = 515;
}
);
unicode = 115;
},
{
glyphname = t;
lastChange = "2024-05-10 17:24:05 +0000";
layers = (
{
layerId = m01;
shapes = (
{
closed = 1;
nodes = (
(348,125,o),
(326,132,o),
(326,118,cs),
(326,80,o),
(299,75,o),
(279,75,cs),
(244,75,o),
(223,108,o),
(223,143,cs),
(223,179,o),
(244,212,o),
(291,215,cs),
(363,219,o),
(392,144,o),
(392,94,cs),
(392,16,o),
(345,-41,o),
(256,-41,cs),
(156,-41,o),
(106,56,o),
(106,161,c),
(106,213,o),
(106,410,o),
(102,427,cs),
(96,455,o),
(37,444,o),
(35,448,cs),
(31,458,o),
(27,511,o),
(34,511,cs),
(76,513,o),
(127,509,o),
(134,536,cs),
(145,576,o),
(144,735,o),
(144,757,cs),
(144,764,o),
(161,767,o),
(177,767,cs),
(223,767,o),
(211,759,o),
(211,721,cs),
(211,680,o),
(192,513,o),
(216,513,cs),
(223,513,o),
(345,516,o),
(360,512,cs),
(363,511,o),
(364,441,o),
(360,439,cs),
(355,437,o),
(230,439,o),
(207,439,c),
(207,388,o),
(207,283,o),
(207,199,cs),
(207,144,o),
(199,96,o),
(219,65,cs),
(233,43,o),
(256,29,o),
(276,29,cs),
(320,29,o),
(359,56,o),
(350,111,cs)
);
}
);
width = 422;
},
{
layerId = "39F366B4-F9D9-4E9E-8D0D-E9C65FBDF7D6";
shapes = (
{
closed = 1;
nodes = (
(348,125,o),
(326,132,o),
(326,118,cs),
(326,80,o),
(299,75,o),
(279,75,cs),
(244,75,o),
(223,108,o),
(223,143,cs),
(223,179,o),
(244,212,o),
(291,215,cs),
(363,219,o),
(392,144,o),
(392,94,cs),
(392,16,o),
(345,-41,o),
(256,-41,cs),
(156,-41,o),
(106,56,o),
(106,161,c),
(106,213,o),
(106,410,o),
(102,427,cs),
(96,455,o),
(37,444,o),
(35,448,cs),
(31,458,o),
(27,511,o),
(34,511,cs),
(76,513,o),
(127,509,o),
(134,536,cs),
(145,576,o),
(144,735,o),
(144,757,cs),
(144,764,o),
(161,767,o),
(177,767,cs),
(223,767,o),
(211,759,o),
(211,721,cs),
(211,680,o),
(192,513,o),
(216,513,cs),
(223,513,o),
(345,516,o),
(360,512,cs),
(363,511,o),
(364,441,o),
(360,439,cs),
(355,437,o),
(230,439,o),
(207,439,c),
(207,388,o),
(207,283,o),
(207,199,cs),
(207,144,o),
(199,96,o),
(219,65,cs),
(233,43,o),
(256,29,o),
(276,29,cs),
(320,29,o),
(359,56,o),
(350,111,cs)
);
}
);
width = 422;
},
{
layerId = "25AC2642-BCCD-43FA-98BC-574BD19E6D80";
shapes = (
{
closed = 1;
nodes = (
(348,125,o),
(326,132,o),
(326,118,cs),
(326,80,o),
(299,75,o),
(279,75,cs),
(244,75,o),
(223,108,o),
(223,143,cs),
(223,179,o),
(244,212,o),
(291,215,cs),
(363,219,o),
(392,144,o),
(392,94,cs),
(392,16,o),
(345,-41,o),
(256,-41,cs),
(156,-41,o),
(106,56,o),
(106,161,c),
(106,213,o),
(106,410,o),
(102,427,cs),
(96,455,o),
(37,444,o),
(35,448,cs),
(31,458,o),
(27,511,o),
(34,511,cs),
(76,513,o),
(127,509,o),
(134,536,cs),
(145,576,o),
(144,735,o),
(144,757,cs),
(144,764,o),
(161,767,o),
(177,767,cs),
(223,767,o),
(211,759,o),
(211,721,cs),
(211,680,o),
(192,513,o),
(216,513,cs),
(223,513,o),
(345,516,o),
(360,512,cs),
(363,511,o),
(364,441,o),
(360,439,cs),
(355,437,o),
(230,439,o),
(207,439,c),
(207,388,o),
(207,283,o),
(207,199,cs),
(207,144,o),
(199,96,o),
(219,65,cs),
(233,43,o),
(256,29,o),
(276,29,cs),
(320,29,o),
(359,56,o),
(350,111,cs)
);
}
);
width = 422;
}
);
unicode = 116;
},
{
glyphname = u;
lastChange = "2024-05-10 17:39:26 +0000";
layers = (
{
layerId = m01;
shapes = (
{
closed = 1;
nodes = (
(370,-19,o),
(219,-13,o),
(148,31,cs),
(89,67,o),
(30,116,o),
(30,253,cs),
(30,367,o),
(89,404,o),
(120,438,c),
(123,460,o),
(35,444,o),
(37,484,cs),
(38,500,o),
(114,500,o),
(137,500,cs),
(197,500,o),
(246,505,o),
(235,478,cs),
(225,454,o),
(174,423,o),
(146,376,cs),
(114,322,o),
(103,278,o),
(103,231,cs),
(103,148,o),
(181,70,o),
(294,81,c),
(380,95,o),
(440,172,o),
(440,268,cs),
(440,316,o),
(447,372,o),
(430,420,cs),
(422,443,o),
(361,468,o),
(377,487,cs),
(386,497,o),
(434,494,o),
(452,498,cs),
(499,509,o),
(501,521,o),
(512,509,c),
(514,480,o),
(504,467,o),
(505,420,cs),
(507,331,o),
(504,235,o),
(504,162,cs),
(504,138,o),
(504,106,o),
(514,73,cs),
(522,47,o),
(568,5,o),
(536,3,cs),
(487,0,o),
(457,10,o),
(440,85,c)
);
},
{
closed = 1;
nodes = (
(289,189,o),
(307,197,o),
(319,211,cs),
(329,223,o),
(336,238,o),
(336,255,cs),
(336,272,o),
(330,287,o),
(319,299,cs),
(307,312,o),
(289,321,o),
(270,321,cs),
(251,321,o),
(233,312,o),
(221,299,cs),
(211,287,o),
(204,272,o),
(204,255,cs),
(204,239,o),
(210,223,o),
(220,212,cs),
(233,198,o),
(250,189,o),
(270,189,cs)
);
}
);
width = 577;
},
{
layerId = "39F366B4-F9D9-4E9E-8D0D-E9C65FBDF7D6";
shapes = (
{
closed = 1;
nodes = (
(370,-19,o),
(219,-13,o),
(148,31,cs),
(89,67,o),
(30,116,o),
(30,253,cs),
(30,367,o),
(89,404,o),
(120,438,c),
(123,460,o),
(35,444,o),
(37,484,cs),
(38,500,o),
(114,500,o),
(137,500,cs),
(197,500,o),
(246,505,o),
(235,478,cs),
(225,454,o),
(174,423,o),
(146,376,cs),
(114,322,o),
(103,278,o),
(103,231,cs),
(103,148,o),
(181,70,o),
(294,81,c),
(380,95,o),
(440,172,o),
(440,268,cs),
(440,316,o),
(447,372,o),
(430,420,cs),
(422,443,o),
(361,468,o),
(377,487,cs),
(386,497,o),
(434,494,o),
(452,498,cs),
(499,509,o),
(501,521,o),
(512,509,c),
(514,480,o),
(504,467,o),
(505,420,cs),
(507,331,o),
(504,235,o),
(504,162,cs),
(504,138,o),
(504,106,o),
(514,73,cs),
(522,47,o),
(568,5,o),
(536,3,cs),
(487,0,o),
(457,10,o),
(440,85,c)
);
},
{
closed = 1;
nodes = (
(289,169,o),
(282,216,o),
(294,230,cs),
(304,242,o),
(356,238,o),
(356,255,cs),
(356,272,o),
(305,267,o),
(294,279,cs),
(282,292,o),
(289,341,o),
(270,341,cs),
(251,341,o),
(257,292,o),
(245,279,cs),
(235,267,o),
(184,272,o),
(184,255,cs),
(184,239,o),
(235,241,o),
(245,230,cs),
(258,216,o),
(250,169,o),
(270,169,cs)
);
}
);
width = 577;
},
{
layerId = "25AC2642-BCCD-43FA-98BC-574BD19E6D80";
shapes = (
{
closed = 1;
nodes = (
(370,-19,o),
(219,-13,o),
(148,31,cs),
(89,67,o),
(30,116,o),
(30,253,cs),
(30,367,o),
(89,404,o),
(120,438,c),
(123,460,o),
(35,444,o),
(37,484,cs),
(38,500,o),
(114,500,o),
(137,500,cs),
(197,500,o),
(246,505,o),
(235,478,cs),
(225,454,o),
(174,423,o),
(146,376,cs),
(114,322,o),
(103,278,o),
(103,231,cs),
(103,148,o),
(181,70,o),
(294,81,c),
(380,95,o),
(440,172,o),
(440,268,cs),
(440,316,o),
(447,372,o),
(430,420,cs),
(422,443,o),
(361,468,o),
(377,487,cs),
(386,497,o),
(434,494,o),
(452,498,cs),
(499,509,o),
(501,521,o),
(512,509,c),
(514,480,o),
(504,467,o),
(505,420,cs),
(507,331,o),
(504,235,o),
(504,162,cs),
(504,138,o),
(504,106,o),
(514,73,cs),
(522,47,o),
(568,5,o),
(536,3,cs),
(487,0,o),
(457,10,o),
(440,85,c)
);
},
{
closed = 1;
nodes = (
(289,219,o),
(327,177,o),
(339,191,cs),
(349,203,o),
(306,238,o),
(306,255,cs),
(306,272,o),
(350,307,o),
(339,319,cs),
(327,332,o),
(289,291,o),
(270,291,cs),
(251,291,o),
(213,332,o),
(201,319,cs),
(191,307,o),
(234,272,o),
(234,255,cs),
(234,239,o),
(190,203,o),
(200,192,cs),
(213,178,o),
(250,219,o),
(270,219,cs)
);
}
);
width = 577;
}
);
unicode = 117;
},
{
glyphname = v;
lastChange = "2024-05-10 17:24:32 +0000";
layers = (
{
layerId = m01;
shapes = (
{
closed = 1;
nodes = (
(391,446,o),
(355,455,o),
(358,476,cs),
(361,499,o),
(413,500,o),
(458,500,cs),
(490,500,o),
(526,498,o),
(526,487,cs),
(526,471,o),
(479,436,o),
(472,409,cs),
(467,391,o),
(413,166,o),
(338,63,cs),
(317,34,o),
(283,0,o),
(260,0,cs),
(226,0,o),
(214,8,o),
(170,71,cs),
(109,159,o),
(54,412,o),
(23,471,cs),
(8,499,o),
(63,500,o),
(100,500,cs),
(135,500,o),
(183,499,o),
(183,480,cs),
(183,458,o),
(136,435,o),
(136,409,cs),
(152,269,o),
(184,180,o),
(209,131,cs),
(234,82,o),
(252,85,o),
(260,85,cs),
(275,85,o),
(307,134,o),
(322,166,cs),
(355,236,o),
(391,355,o),
(391,424,cs)
);
}
);
width = 546;
},
{
layerId = "39F366B4-F9D9-4E9E-8D0D-E9C65FBDF7D6";
shapes = (
{
closed = 1;
nodes = (
(391,446,o),
(355,455,o),
(358,476,cs),
(361,499,o),
(413,500,o),
(458,500,cs),
(490,500,o),
(526,498,o),
(526,487,cs),
(526,471,o),
(479,436,o),
(472,409,cs),
(467,391,o),
(413,166,o),
(338,63,cs),
(317,34,o),
(283,0,o),
(260,0,cs),
(226,0,o),
(214,8,o),
(170,71,cs),
(109,159,o),
(54,412,o),
(23,471,cs),
(8,499,o),
(63,500,o),
(100,500,cs),
(135,500,o),
(183,499,o),
(183,480,cs),
(183,458,o),
(136,435,o),
(136,409,cs),
(152,269,o),
(184,180,o),
(209,131,cs),
(234,82,o),
(252,85,o),
(260,85,cs),
(275,85,o),
(307,134,o),
(322,166,cs),
(355,236,o),
(391,355,o),
(391,424,cs)
);
}
);
width = 546;
},
{
layerId = "25AC2642-BCCD-43FA-98BC-574BD19E6D80";
shapes = (
{
closed = 1;
nodes = (
(391,446,o),
(355,455,o),
(358,476,cs),
(361,499,o),
(413,500,o),
(458,500,cs),
(490,500,o),
(526,498,o),
(526,487,cs),
(526,471,o),
(479,436,o),
(472,409,cs),
(467,391,o),
(413,166,o),
(338,63,cs),
(317,34,o),
(283,0,o),
(260,0,cs),
(226,0,o),
(214,8,o),
(170,71,cs),
(109,159,o),
(54,412,o),
(23,471,cs),
(8,499,o),
(63,500,o),
(100,500,cs),
(135,500,o),
(183,499,o),
(183,480,cs),
(183,458,o),
(136,435,o),
(136,409,cs),
(152,269,o),
(184,180,o),
(209,131,cs),
(234,82,o),
(252,85,o),
(260,85,cs),
(275,85,o),
(307,134,o),
(322,166,cs),
(355,236,o),
(391,355,o),
(391,424,cs)
);
}
);
width = 546;
}
);
unicode = 118;
},
{
glyphname = w;
lastChange = "2024-05-10 17:24:49 +0000";
layers = (
{
layerId = m01;
shapes = (
{
closed = 1;
nodes = (
(50,502,o),
(104,500,o),
(159,500,cs),
(197,500,o),
(231,493,o),
(231,475,cs),
(231,451,o),
(168,418,o),
(169,394,cs),
(171,345,o),
(225,89,o),
(285,89,cs),
(339,89,o),
(395,219,o),
(410,270,cs),
(436,361,o),
(418,406,o),
(418,460,cs),
(418,493,o),
(419,500,o),
(501,500,cs),
(555,500,o),
(558,469,o),
(551,459,cs),
(539,441,o),
(535,419,o),
(535,357,cs),
(535,298,o),
(584,94,o),
(657,94,cs),
(710,94,o),
(771,310,o),
(771,385,cs),
(771,436,o),
(692,439,o),
(693,475,cs),
(694,495,o),
(750,500,o),
(788,500,cs),
(840,500,o),
(892,499,o),
(892,482,cs),
(892,468,o),
(881,464,o),
(874,446,cs),
(847,378,o),
(804,0,o),
(659,0,cs),
(597,0,o),
(549,55,o),
(508,137,cs),
(495,163,o),
(482,225,o),
(471,225,cs),
(466,225,o),
(463,220,o),
(461,215,cs),
(418,94,o),
(348,1,o),
(294,0,cs),
(227,-1,o),
(184,61,o),
(159,116,cs),
(132,175,o),
(95,354,o),
(85,394,cs),
(73,437,o),
(50,441,o),
(50,461,cs)
);
}
);
width = 942;
},
{
layerId = "39F366B4-F9D9-4E9E-8D0D-E9C65FBDF7D6";
shapes = (
{
closed = 1;
nodes = (
(50,502,o),
(104,500,o),
(159,500,cs),
(197,500,o),
(231,493,o),
(231,475,cs),
(231,451,o),
(168,418,o),
(169,394,cs),
(171,345,o),
(225,89,o),
(285,89,cs),
(339,89,o),
(395,219,o),
(410,270,cs),
(436,361,o),
(418,406,o),
(418,460,cs),
(418,493,o),
(419,500,o),
(501,500,cs),
(555,500,o),
(558,469,o),
(551,459,cs),
(539,441,o),
(535,419,o),
(535,357,cs),
(535,298,o),
(584,94,o),
(657,94,cs),
(710,94,o),
(771,310,o),
(771,385,cs),
(771,436,o),
(692,439,o),
(693,475,cs),
(694,495,o),
(750,500,o),
(788,500,cs),
(840,500,o),
(892,499,o),
(892,482,cs),
(892,468,o),
(881,464,o),
(874,446,cs),
(847,378,o),
(804,0,o),
(659,0,cs),
(597,0,o),
(549,55,o),
(508,137,cs),
(495,163,o),
(482,225,o),
(471,225,cs),
(466,225,o),
(463,220,o),
(461,215,cs),
(418,94,o),
(348,1,o),
(294,0,cs),
(227,-1,o),
(184,61,o),
(159,116,cs),
(132,175,o),
(95,354,o),
(85,394,cs),
(73,437,o),
(50,441,o),
(50,461,cs)
);
}
);
width = 942;
},
{
layerId = "25AC2642-BCCD-43FA-98BC-574BD19E6D80";
shapes = (
{
closed = 1;
nodes = (
(50,502,o),
(104,500,o),
(159,500,cs),
(197,500,o),
(231,493,o),
(231,475,cs),
(231,451,o),
(168,418,o),
(169,394,cs),
(171,345,o),
(225,89,o),
(285,89,cs),
(339,89,o),
(395,219,o),
(410,270,cs),
(436,361,o),
(418,406,o),
(418,460,cs),
(418,493,o),
(419,500,o),
(501,500,cs),
(555,500,o),
(558,469,o),
(551,459,cs),
(539,441,o),
(535,419,o),
(535,357,cs),
(535,298,o),
(584,94,o),
(657,94,cs),
(710,94,o),
(771,310,o),
(771,385,cs),
(771,436,o),
(692,439,o),
(693,475,cs),
(694,495,o),
(750,500,o),
(788,500,cs),
(840,500,o),
(892,499,o),
(892,482,cs),
(892,468,o),
(881,464,o),
(874,446,cs),
(847,378,o),
(804,0,o),
(659,0,cs),
(597,0,o),
(549,55,o),
(508,137,cs),
(495,163,o),
(482,225,o),
(471,225,cs),
(466,225,o),
(463,220,o),
(461,215,cs),
(418,94,o),
(348,1,o),
(294,0,cs),
(227,-1,o),
(184,61,o),
(159,116,cs),
(132,175,o),
(95,354,o),
(85,394,cs),
(73,437,o),
(50,441,o),
(50,461,cs)
);
}
);
width = 942;
}
);
unicode = 119;
},
{
glyphname = x;
lastChange = "2024-05-10 17:25:11 +0000";
layers = (
{
layerId = m01;
shapes = (
{
closed = 1;
nodes = (
(403,448,o),
(355,460,o),
(358,481,cs),
(361,504,o),
(409,505,o),
(450,505,cs),
(480,505,o),
(521,505,o),
(502,476,c),
(350,288,l),
(328,261,o),
(299,225,o),
(278,225,cs),
(256,225,o),
(239,236,o),
(195,296,c),
(50,476,l),
(36,504,o),
(87,505,o),
(121,505,cs),
(173,505,o),
(217,504,o),
(217,485,cs),
(217,463,o),
(173,452,o),
(189,429,c),
(224,378,o),
(273,320,o),
(288,320,cs),
(301,320,o),
(369,404,o),
(388,429,cs)
);
},
{
closed = 1;
nodes = (
(133,57,o),
(181,45,o),
(178,24,cs),
(175,1,o),
(127,0,o),
(86,0,cs),
(56,0,o),
(5,0,o),
(24,29,c),
(206,247,l),
(228,274,o),
(257,300,o),
(278,300,cs),
(300,300,o),
(317,299,o),
(361,239,c),
(536,29,l),
(550,1,o),
(489,0,o),
(455,0,cs),
(423,0,o),
(359,1,o),
(359,20,cs),
(359,42,o),
(403,53,o),
(387,76,c),
(352,127,o),
(283,215,o),
(268,215,cs),
(255,215,o),
(167,101,o),
(148,76,cs)
);
}
);
width = 558;
},
{
layerId = "39F366B4-F9D9-4E9E-8D0D-E9C65FBDF7D6";
shapes = (
{
closed = 1;
nodes = (
(403,448,o),
(355,460,o),
(358,481,cs),
(361,504,o),
(409,505,o),
(450,505,cs),
(480,505,o),
(521,505,o),
(502,476,c),
(350,288,l),
(328,261,o),
(299,225,o),
(278,225,cs),
(256,225,o),
(239,236,o),
(195,296,c),
(50,476,l),
(36,504,o),
(87,505,o),
(121,505,cs),
(173,505,o),
(217,504,o),
(217,485,cs),
(217,463,o),
(173,452,o),
(189,429,c),
(224,378,o),
(273,320,o),
(288,320,cs),
(301,320,o),
(369,404,o),
(388,429,cs)
);
},
{
closed = 1;
nodes = (
(133,57,o),
(181,45,o),
(178,24,cs),
(175,1,o),
(127,0,o),
(86,0,cs),
(56,0,o),
(5,0,o),
(24,29,c),
(206,247,l),
(228,274,o),
(257,300,o),
(278,300,cs),
(300,300,o),
(317,299,o),
(361,239,c),
(536,29,l),
(550,1,o),
(489,0,o),
(455,0,cs),
(423,0,o),
(359,1,o),
(359,20,cs),
(359,42,o),
(403,53,o),
(387,76,c),
(352,127,o),
(283,215,o),
(268,215,cs),
(255,215,o),
(167,101,o),
(148,76,cs)
);
}
);
width = 558;
},
{
layerId = "25AC2642-BCCD-43FA-98BC-574BD19E6D80";
shapes = (
{
closed = 1;
nodes = (
(403,448,o),
(355,460,o),
(358,481,cs),
(361,504,o),
(409,505,o),
(450,505,cs),
(480,505,o),
(521,505,o),
(502,476,c),
(350,288,l),
(328,261,o),
(299,225,o),
(278,225,cs),
(256,225,o),
(239,236,o),
(195,296,c),
(50,476,l),
(36,504,o),
(87,505,o),
(121,505,cs),
(173,505,o),
(217,504,o),
(217,485,cs),
(217,463,o),
(173,452,o),
(189,429,c),
(224,378,o),
(273,320,o),
(288,320,cs),
(301,320,o),
(369,404,o),
(388,429,cs)
);
},
{
closed = 1;
nodes = (
(133,57,o),
(181,45,o),
(178,24,cs),
(175,1,o),
(127,0,o),
(86,0,cs),
(56,0,o),
(5,0,o),
(24,29,c),
(206,247,l),
(228,274,o),
(257,300,o),
(278,300,cs),
(300,300,o),
(317,299,o),
(361,239,c),
(536,29,l),
(550,1,o),
(489,0,o),
(455,0,cs),
(423,0,o),
(359,1,o),
(359,20,cs),
(359,42,o),
(403,53,o),
(387,76,c),
(352,127,o),
(283,215,o),
(268,215,cs),
(255,215,o),
(167,101,o),
(148,76,cs)
);
}
);
width = 558;
}
);
unicode = 120;
},
{
glyphname = y;
lastChange = "2024-05-10 17:40:01 +0000";
layers = (
{
layerId = m01;
shapes = (
{
closed = 1;
nodes = (
(534,235,o),
(537,331,o),
(535,420,cs),
(534,467,o),
(544,480,o),
(542,509,c),
(531,521,o),
(529,509,o),
(472,498,cs),
(454,495,o),
(406,497,o),
(397,487,cs),
(381,468,o),
(442,443,o),
(450,420,cs),
(467,372,o),
(460,316,o),
(460,268,cs),
(460,172,o),
(400,95,o),
(314,81,c),
(201,70,o),
(123,148,o),
(123,231,cs),
(123,278,o),
(134,322,o),
(166,376,cs),
(194,423,o),
(245,454,o),
(255,478,cs),
(266,505,o),
(217,500,o),
(157,500,cs),
(134,500,o),
(58,500,o),
(57,484,cs),
(55,444,o),
(143,460,o),
(140,438,c),
(109,404,o),
(50,367,o),
(50,253,cs),
(50,116,o),
(109,67,o),
(168,31,cs),
(239,-13,o),
(390,-19,o),
(460,85,c),
(466,91,o),
(465,-89,o),
(437,-142,cs),
(403,-206,o),
(360,-221,o),
(289,-219,cs),
(227,-217,o),
(153,-167,o),
(167,-142,cs),
(193,-96,o),
(177,-70,o),
(164,-71,c),
(149,-74,o),
(97,-121,o),
(97,-148,cs),
(97,-186,o),
(110,-198,o),
(134,-219,cs),
(179,-258,o),
(227,-282,o),
(301,-282,c),
(524,-282,o),
(534,-73,o),
(534,162,cs)
);
},
{
closed = 1;
nodes = (
(309,189,o),
(327,197,o),
(339,211,cs),
(349,223,o),
(356,238,o),
(356,255,cs),
(356,272,o),
(350,287,o),
(339,299,cs),
(327,312,o),
(309,321,o),
(290,321,cs),
(271,321,o),
(253,312,o),
(241,299,cs),
(231,287,o),
(224,272,o),
(224,255,cs),
(224,239,o),
(230,223,o),
(240,212,cs),
(253,198,o),
(270,189,o),
(290,189,cs)
);
}
);
width = 592;
},
{
layerId = "39F366B4-F9D9-4E9E-8D0D-E9C65FBDF7D6";
shapes = (
{
closed = 1;
nodes = (
(534,235,o),
(537,331,o),
(535,420,cs),
(534,467,o),
(544,480,o),
(542,509,c),
(531,521,o),
(529,509,o),
(472,498,cs),
(454,495,o),
(406,497,o),
(397,487,cs),
(381,468,o),
(442,443,o),
(450,420,cs),
(467,372,o),
(460,316,o),
(460,268,cs),
(460,172,o),
(400,95,o),
(314,81,c),
(201,70,o),
(123,148,o),
(123,231,cs),
(123,278,o),
(134,322,o),
(166,376,cs),
(194,423,o),
(245,454,o),
(255,478,cs),
(266,505,o),
(217,500,o),
(157,500,cs),
(134,500,o),
(58,500,o),
(57,484,cs),
(55,444,o),
(143,460,o),
(140,438,c),
(109,404,o),
(50,367,o),
(50,253,cs),
(50,116,o),
(109,67,o),
(168,31,cs),
(239,-13,o),
(390,-19,o),
(460,85,c),
(466,91,o),
(465,-89,o),
(437,-142,cs),
(403,-206,o),
(360,-221,o),
(289,-219,cs),
(227,-217,o),
(153,-167,o),
(167,-142,cs),
(193,-96,o),
(177,-70,o),
(164,-71,c),
(149,-74,o),
(97,-121,o),
(97,-148,cs),
(97,-186,o),
(110,-198,o),
(134,-219,cs),
(179,-258,o),
(227,-282,o),
(301,-282,c),
(524,-282,o),
(534,-73,o),
(534,162,cs)
);
},
{
closed = 1;
nodes = (
(309,219,o),
(347,177,o),
(359,191,cs),
(369,203,o),
(326,238,o),
(326,255,cs),
(326,272,o),
(370,307,o),
(359,319,cs),
(347,332,o),
(309,291,o),
(290,291,cs),
(271,291,o),
(233,332,o),
(221,319,cs),
(211,307,o),
(254,272,o),
(254,255,cs),
(254,239,o),
(210,203,o),
(220,192,cs),
(233,178,o),
(270,219,o),
(290,219,cs)
);
}
);
width = 592;
},
{
layerId = "25AC2642-BCCD-43FA-98BC-574BD19E6D80";
shapes = (
{
closed = 1;
nodes = (
(534,235,o),
(537,331,o),
(535,420,cs),
(534,467,o),
(544,480,o),
(542,509,c),
(531,521,o),
(529,509,o),
(472,498,cs),
(454,495,o),
(406,497,o),
(397,487,cs),
(381,468,o),
(442,443,o),
(450,420,cs),
(467,372,o),
(460,316,o),
(460,268,cs),
(460,172,o),
(400,95,o),
(314,81,c),
(201,70,o),
(123,148,o),
(123,231,cs),
(123,278,o),
(134,322,o),
(166,376,cs),
(194,423,o),
(245,454,o),
(255,478,cs),
(266,505,o),
(217,500,o),
(157,500,cs),
(134,500,o),
(58,500,o),
(57,484,cs),
(55,444,o),
(143,460,o),
(140,438,c),
(109,404,o),
(50,367,o),
(50,253,cs),
(50,116,o),
(109,67,o),
(168,31,cs),
(239,-13,o),
(390,-19,o),
(460,85,c),
(466,91,o),
(465,-89,o),
(437,-142,cs),
(403,-206,o),
(360,-221,o),
(289,-219,cs),
(227,-217,o),
(153,-167,o),
(167,-142,cs),
(193,-96,o),
(177,-70,o),
(164,-71,c),
(149,-74,o),
(97,-121,o),
(97,-148,cs),
(97,-186,o),
(110,-198,o),
(134,-219,cs),
(179,-258,o),
(227,-282,o),
(301,-282,c),
(524,-282,o),
(534,-73,o),
(534,162,cs)
);
},
{
closed = 1;
nodes = (
(309,169,o),
(302,216,o),
(314,230,cs),
(324,242,o),
(376,238,o),
(376,255,cs),
(376,272,o),
(325,267,o),
(314,279,cs),
(302,292,o),
(309,341,o),
(290,341,cs),
(271,341,o),
(277,292,o),
(265,279,cs),
(255,267,o),
(204,272,o),
(204,255,cs),
(204,239,o),
(255,241,o),
(265,230,cs),
(278,216,o),
(270,169,o),
(290,169,cs)
);
}
);
width = 592;
}
);
unicode = 121;
},
{
glyphname = z;
lastChange = "2024-05-10 17:25:47 +0000";
layers = (
{
layerId = m01;
shapes = (
{
closed = 1;
nodes = (
(273,256,l),
(340,334,o),
(396,401,o),
(399,407,c),
(400,416,o),
(394,429,o),
(388,430,cs),
(369,434,o),
(297,431,o),
(280,431,cs),
(195,431,o),
(173,438,o),
(137,391,cs),
(133,386,o),
(123,372,o),
(116,372,cs),
(104,373,o),
(80,431,o),
(68,455,cs),
(56,479,o),
(46,486,o),
(52,495,cs),
(56,501,o),
(113,497,o),
(478,500,c),
(510,500,o),
(526,473,o),
(526,452,c),
(509,434,o),
(444,359,o),
(360,256,c)
);
},
{
closed = 1;
nodes = (
(360,256,l),
(273,256,l)
);
},
{
closed = 1;
nodes = (
(360,256,l),
(293,178,o),
(217,101,o),
(214,95,c),
(213,86,o),
(219,83,o),
(225,82,cs),
(244,78,o),
(316,81,o),
(333,81,cs),
(418,81,o),
(440,74,o),
(476,121,cs),
(480,126,o),
(490,140,o),
(497,140,cs),
(509,139,o),
(533,81,o),
(545,57,cs),
(557,33,o),
(567,26,o),
(561,17,cs),
(557,11,o),
(500,15,o),
(135,12,c),
(103,12,o),
(87,39,o),
(87,60,c),
(104,78,o),
(179,153,o),
(273,256,c)
);
}
);
width = 613;
},
{
layerId = "39F366B4-F9D9-4E9E-8D0D-E9C65FBDF7D6";
shapes = (
{
closed = 1;
nodes = (
(273,256,l),
(340,334,o),
(396,401,o),
(399,407,c),
(400,416,o),
(394,429,o),
(388,430,cs),
(369,434,o),
(297,431,o),
(280,431,cs),
(195,431,o),
(173,438,o),
(137,391,cs),
(133,386,o),
(123,372,o),
(116,372,cs),
(104,373,o),
(80,431,o),
(68,455,cs),
(56,479,o),
(46,486,o),
(52,495,cs),
(56,501,o),
(113,497,o),
(478,500,c),
(510,500,o),
(526,473,o),
(526,452,c),
(509,434,o),
(444,359,o),
(360,256,c)
);
},
{
closed = 1;
nodes = (
(360,256,l),
(273,256,l)
);
},
{
closed = 1;
nodes = (
(360,256,l),
(293,178,o),
(217,101,o),
(214,95,c),
(213,86,o),
(219,83,o),
(225,82,cs),
(244,78,o),
(316,81,o),
(333,81,cs),
(418,81,o),
(440,74,o),
(476,121,cs),
(480,126,o),
(490,140,o),
(497,140,cs),
(509,139,o),
(533,81,o),
(545,57,cs),
(557,33,o),
(567,26,o),
(561,17,cs),
(557,11,o),
(500,15,o),
(135,12,c),
(103,12,o),
(87,39,o),
(87,60,c),
(104,78,o),
(179,153,o),
(273,256,c)
);
}
);
width = 613;
},
{
layerId = "25AC2642-BCCD-43FA-98BC-574BD19E6D80";
shapes = (
{
closed = 1;
nodes = (
(273,256,l),
(340,334,o),
(396,401,o),
(399,407,c),
(400,416,o),
(394,429,o),
(388,430,cs),
(369,434,o),
(297,431,o),
(280,431,cs),
(195,431,o),
(173,438,o),
(137,391,cs),
(133,386,o),
(123,372,o),
(116,372,cs),
(104,373,o),
(80,431,o),
(68,455,cs),
(56,479,o),
(46,486,o),
(52,495,cs),
(56,501,o),
(113,497,o),
(478,500,c),
(510,500,o),
(526,473,o),
(526,452,c),
(509,434,o),
(444,359,o),
(360,256,c)
);
},
{
closed = 1;
nodes = (
(360,256,l),
(273,256,l)
);
},
{
closed = 1;
nodes = (
(360,256,l),
(293,178,o),
(217,101,o),
(214,95,c),
(213,86,o),
(219,83,o),
(225,82,cs),
(244,78,o),
(316,81,o),
(333,81,cs),
(418,81,o),
(440,74,o),
(476,121,cs),
(480,126,o),
(490,140,o),
(497,140,cs),
(509,139,o),
(533,81,o),
(545,57,cs),
(557,33,o),
(567,26,o),
(561,17,cs),
(557,11,o),
(500,15,o),
(135,12,c),
(103,12,o),
(87,39,o),
(87,60,c),
(104,78,o),
(179,153,o),
(273,256,c)
);
}
);
width = 613;
}
);
unicode = 122;
},
